SplineFontDB: 3.0
FontName: Hermit-medium
FullName: Hermit Medium
FamilyName: Hermit
Weight: Medium
Copyright: Created by Pablo Caro <me@pcaro.es> - https://pcaro.es/\n\nUnder OFL 1.1 License.
UComments: "2013-9-8: Created." 

StartChar: a
Encoding: 97 97 0
Width: 617
Flags: W
HStem: 0 90<182.974 449> 205 90<187.751 449> 410 90<193.452 404.566>
VStem: 78 90<107.938 186.477> 449 90<90 205 295 369.06>
CounterMasks: 1 e0
LayerCount: 2
Fore
SplineSet
168 148 m 0
 168 90 236 90 308 90 c 3
 350 90 379 90 425 90 c 2
 449 90 l 9
 449 205 l 17
 428 205 l 18
 392 205 350 205 308 205 c 0
 302 205 l 0
 245 205 168 204 168 148 c 0
142 365 m 1
 102 440 l 1
 164 471 233 500 308 500 c 3
 524 500 539 338 539 295 c 0
 539 181 539 115 539 0 c 17
 428 0 l 2
 397 0 348 0 308 0 c 3
 168 0 78 36 78 148 c 3
 78 274 168 295 308 295 c 3
 338 295 384 295 432 295 c 2
 449 295 l 1
 449 391 383 410 308 410 c 1
 228 410 187 387 142 365 c 1
EndSplineSet
Validated: 1
EndChar

StartChar: b
Encoding: 98 98 1
Width: 617
VWidth: 975
Flags: W
HStem: 0 90<168 381.365> 410 90<168 381.365> 730 20G<78 168>
VStem: 78 90<90 410 500 750> 449 90<165.361 334.639>
LayerCount: 2
Fore
SplineSet
539 250 m 0
 539 250 538 0 308 0 c 3
 266 0 212 0 190 0 c 2
 78 0 l 9
 78 140 78 250 78 362 c 0
 78 404 78 598 78 750 c 25
 168 750 l 17
 168 728 168 691 168 625 c 0
 168 593 168 522 168 520 c 1
 168 500 l 1
 186 500 l 2
 217 500 265 500 308 500 c 3
 538 500 539 250 539 250 c 0
190 90 m 2
 308 90 l 3
 448 90 449 250 449 250 c 0
 449 250 448 410 308 410 c 0
 266 410 219 410 184 410 c 10
 184 410 177 410 168 410 c 9
 168 90 l 17
 190 90 l 2
EndSplineSet
Validated: 1
EndChar

StartChar: c
Encoding: 99 99 2
Width: 617
Flags: W
HStem: 0 90<234.787 420.641> 410 90<234.787 420.641>
VStem: 78 90<160.578 339.422> 449 90<119.087 160 340 380.913>
LayerCount: 2
Fore
SplineSet
539 160 m 1
 539 0 398 0 308 0 c 0
 168 0 78 90 78 250 c 4
 78 410 168 500 308 500 c 4
 398 500 539 500 539 340 c 5
 449 340 l 5
 449 410 356 410 310 410 c 4
 308 410 l 4
 218 410 168 340 168 250 c 4
 168 160 218 90 308 90 c 0
 310 90 l 0
 356 90 449 90 449 160 c 1
 539 160 l 1
EndSplineSet
Validated: 1
EndChar

StartChar: d
Encoding: 100 100 3
Width: 617
VWidth: 975
Flags: W
HStem: 0 90<234.757 449> 410 90<234.757 449> 730 20G<449 539>
VStem: 78 90<165.361 334.639> 449 90<90 410 500 750>
LayerCount: 2
Fore
SplineSet
78 250 m 0
 78 250 78 500 308 500 c 3
 351 500 401 500 432 500 c 2
 449 500 l 1
 449 520 l 1
 449 522 449 593 449 625 c 0
 449 691 449 728 449 750 c 9
 539 750 l 25
 539 598 539 404 539 362 c 0
 539 250 539 140 539 0 c 17
 427 0 l 2
 405 0 350 0 308 0 c 3
 78 0 78 250 78 250 c 0
428 90 m 2
 449 90 l 9
 449 410 l 17
 432 410 l 18
 397 410 350 410 308 410 c 0
 168 410 168 250 168 250 c 0
 168 250 168 90 308 90 c 0
 428 90 l 2
EndSplineSet
Validated: 1
EndChar

StartChar: e
Encoding: 101 101 4
Width: 617
Flags: W
HStem: 0 90<197.579 494> 205 90<168 449> 410 90<196.726 419.676>
VStem: 78 90<119.209 205 295 380.791> 449 90<295 380.791>
CounterMasks: 1 e0
LayerCount: 2
Fore
SplineSet
168 295 m 1
 449 295 l 1
 449 410 398 410 308 410 c 0
 218 410 168 410 168 295 c 1
308 500 m 0
 448 500 539 500 539 250 c 2
 539 205 l 1
 168 205 l 1
 168 90 218 90 308 90 c 2
 494 90 l 1
 494 0 l 1
 308 0 l 2
 168 0 78 0 78 250 c 3
 78 500 168 500 308 500 c 0
EndSplineSet
Validated: 1
EndChar

StartChar: f
Encoding: 102 102 5
Width: 617
Flags: W
HStem: 0 21G<148 238> 250 90<238 378> 660 90<265.271 447.548>
VStem: 148 90<0 250 340 630.322>
LayerCount: 2
Fore
SplineSet
148 0 m 25
 148 182 148 363 148 545 c 0
 148 546 l 0
 148 591 149 750 333 750 c 0
 408 750 477 721 539 690 c 1
 499 615 l 1
 454 637 413 660 333 660 c 0
 258 660 238 617 238 545 c 8
 238 477 238 408 238 340 c 25
 378 340 l 25
 378 250 l 25
 238 250 l 25
 238 0 l 25
 148 0 l 25
EndSplineSet
Validated: 1
EndChar

StartChar: g
Encoding: 103 103 6
Width: 617
Flags: W
HStem: -250 90<193.452 404.566> 0 90<202.343 414.302> 410 90<202.343 414.015>
VStem: 78 90<131.578 368.422> 449 90<-119.06 16 129.062 365.906>
LayerCount: 2
Fore
SplineSet
539 0 m 2
 539 -45 l 2
 539 -88 524 -250 308 -250 c 0
 233 -250 164 -221 102 -190 c 1
 142 -115 l 1
 187 -137 228 -160 308 -160 c 0
 383 -160 449 -141 449 -45 c 9
 449 0 l 18
 449 16 l 1
 449 16 448 0 308 0 c 0
 168 0 78 0 78 250 c 0
 78 500 168 500 308 500 c 0
 448 500 539 500 539 250 c 1
 539 190 539 160 539 0 c 2
308 410 m 0
 218 410 168 410 168 250 c 0
 168 90 218 90 308 90 c 0
 398 90 449 90 449 250 c 0
 449 410 398 410 308 410 c 0
EndSplineSet
Validated: 1
EndChar

StartChar: h
Encoding: 104 104 7
Width: 617
VWidth: 975
Flags: W
HStem: 0 21G<78 168 449 539> 410 90<168 381.365> 730 20G<78 168>
VStem: 78 90<0 410 500 750> 449 90<0 334.639>
LayerCount: 2
Fore
SplineSet
539 0 m 25
 449 0 l 25
 449 98 449 157 449 250 c 0
 449 250 448 410 308 410 c 0
 266 410 219 410 184 410 c 10
 184 410 177 410 168 410 c 9
 168 0 l 17
 78 0 l 9
 78 140 78 250 78 362 c 0
 78 404 78 598 78 750 c 25
 168 750 l 17
 168 728 168 691 168 625 c 0
 168 593 168 522 168 520 c 1
 168 500 l 1
 186 500 l 2
 217 500 265 500 308 500 c 3
 538 500 539 250 539 250 c 0
 539 164 539 98 539 0 c 25
EndSplineSet
Validated: 1
EndChar

StartChar: i
Encoding: 105 105 8
Width: 617
Flags: W
HStem: 0 90<78 264 354 539> 410 90<123 264> 570 180<210.426 317.574>
VStem: 174 180<606.426 713.574> 264 90<90 410>
LayerCount: 2
Fore
SplineSet
123 500 m 0xe8
 354 500 l 0
 354 90 l 0
 539 90 l 0
 539 0 l 0
 78 0 l 0
 78 90 l 0
 264 90 l 0
 264 410 l 0
 123 410 l 0
 123 500 l 0xe8
264 750 m 0
 309 750 354 705 354 660 c 0xf0
 354 615 309 570 264 570 c 0xe8
 219 570 174 615 174 660 c 0xf0
 174 705 219 750 264 750 c 0
EndSplineSet
Validated: 1
EndChar

StartChar: j
Encoding: 106 106 9
Width: 617
Flags: W
HStem: -250 90<184.452 395.566> 410 90<158 440> 570 180<334.809 441.574>
VStem: 299 179<606.426 713.574> 440 90<-119.06 410>
LayerCount: 2
Fore
SplineSet
530 0 m 2xe8
 530 -45 l 2xe8
 530 -88 515 -250 299 -250 c 0
 224 -250 155 -221 93 -190 c 1
 133 -115 l 1
 178 -137 219 -160 299 -160 c 0xf0
 374 -160 440 -141 440 -45 c 9
 440 0 l 18
 440 410 l 25
 158 410 l 25
 158 500 l 25
 530 500 l 25
 530 0 l 2xe8
388 750 m 0
 433 750 478 705 478 660 c 0
 478 615 433 570 388 570 c 0
 343 570 299 615 299 660 c 0xf0
 299 705 343 750 388 750 c 0
EndSplineSet
Validated: 1
EndChar

StartChar: k
Encoding: 107 107 10
Width: 617
Flags: MW
HStem: 0 21G<78 208 415.814 539> 480 20G<386.5 539> 730 20G<78 168>
VStem: 78 90<128 750>
DStem2: 168 128 188 0 0.575655 0.817692<0 116.57 212.587 455.003> 364 250 308 172 0.573462 -0.819232<31.7862 242.656>
LayerCount: 2
Fore
SplineSet
539 0 m 1
 430 0 l 1
 308 172 l 1
 268 114 228 58 188 0 c 1
 151 0 115 0 78 0 c 1
 78 750 l 1
 168 750 l 1
 168 128 l 1
 255 252 343 376 430 500 c 1
 539 500 l 1
 481 417 422 333 364 250 c 1
 539 0 l 1
EndSplineSet
Validated: 1
EndChar

StartChar: l
Encoding: 108 108 11
Width: 617
Flags: W
HStem: 0 90<78 264 354 539> 660 90<174 264>
VStem: 264 90<90 660>
LayerCount: 2
Fore
SplineSet
174 750 m 0
 354 750 l 0
 354 90 l 0
 539 90 l 0
 539 0 l 0
 78 0 l 0
 78 90 l 0
 264 90 l 0
 264 660 l 0
 174 660 l 0
 174 750 l 0
EndSplineSet
Validated: 1
EndChar

StartChar: m
Encoding: 109 109 12
Width: 617
Flags: W
HStem: 0 21G<78 168 264 354 449 539> 410 90<181.223 264 354 434.916>
VStem: 78 90<0 396.777> 264 90<0 410> 449 90<0 396.777>
LayerCount: 2
Fore
SplineSet
168 0 m 1
 78 0 l 1
 78 270 l 2
 78 500 78 500 308 500 c 0
 538 500 539 500 539 270 c 2
 539 0 l 1
 449 0 l 1
 449 270 l 2
 449 278 l 0
 449 410 448 410 354 410 c 1
 354 0 l 1
 264 0 l 1
 264 410 l 1
 168 408 168 410 168 270 c 2
 168 0 l 1
EndSplineSet
Validated: 1
EndChar

StartChar: n
Encoding: 110 110 13
Width: 617
Flags: W
HStem: 0 21G<78 168 449 539> 410 90<185.046 386.527>
VStem: 78 90<0 390.327> 449 90<0 342.773>
LayerCount: 2
Fore
SplineSet
168 0 m 1
 78 0 l 1
 78 70 78 183 78 270 c 0
 78 500 78 500 308 500 c 3
 538 500 539 270 539 270 c 0
 539 0 l 1
 449 0 l 1
 449 270 l 0
 449 270 448 410 308 410 c 3
 168 410 168 410 168 270 c 3
 168 188 168 70 168 0 c 1
EndSplineSet
Validated: 1
EndChar

StartChar: o
Encoding: 111 111 14
Width: 617
Flags: W
HStem: 0 90<202.343 414.015> 410 90<202.343 414.015>
VStem: 78 90<131.578 368.422> 449 90<131.578 368.422>
LayerCount: 2
Fore
SplineSet
539 250 m 0
 539 0 448 0 308 0 c 0
 168 0 78 0 78 250 c 0
 78 500 168 500 308 500 c 4
 448 500 539 500 539 250 c 0
308 410 m 0
 218 410 168 410 168 250 c 0
 168 90 218 90 308 90 c 0
 398 90 449 90 449 250 c 3
 449 410 398 410 308 410 c 0
EndSplineSet
Validated: 1
EndChar

StartChar: p
Encoding: 112 112 15
Width: 617
VWidth: 975
Flags: W
HStem: 0 90<168 381.365> 410 90<168 381.365>
VStem: 78 90<-250 0 90 410> 449 90<165.361 334.639>
LayerCount: 2
Fore
SplineSet
539 250 m 0
 539 250 538 0 308 0 c 0
 265 0 217 0 186 0 c 2
 168 0 l 1
 168 -20 l 1
 168 -22 168 -93 168 -125 c 0
 168 -191 168 -228 168 -250 c 9
 78 -250 l 25
 78 -98 78 96 78 138 c 0
 78 250 78 360 78 500 c 17
 190 500 l 2
 212 500 266 500 308 500 c 0
 538 500 539 250 539 250 c 0
190 410 m 2
 168 410 l 9
 168 90 l 17
 184 90 l 18
 219 90 266 90 308 90 c 0
 448 90 449 250 449 250 c 0
 449 250 448 410 308 410 c 0
 190 410 l 2
EndSplineSet
Validated: 1
EndChar

StartChar: q
Encoding: 113 113 16
Width: 617
VWidth: 975
Flags: W
HStem: 0 90<234.757 449> 410 90<234.757 449>
VStem: 78 90<165.361 334.639> 449 90<-250 0 90 410>
LayerCount: 2
Fore
SplineSet
78 250 m 0
 78 250 78 500 308 500 c 0
 350 500 405 500 427 500 c 2
 539 500 l 9
 539 360 539 250 539 138 c 0
 539 96 539 -98 539 -250 c 25
 449 -250 l 17
 449 -228 449 -191 449 -125 c 0
 449 -93 449 -22 449 -20 c 1
 449 0 l 1
 432 0 l 2
 401 0 351 0 308 0 c 0
 78 0 78 250 78 250 c 0
428 410 m 2
 308 410 l 0
 168 410 168 250 168 250 c 0
 168 250 168 90 308 90 c 0
 350 90 397 90 432 90 c 10
 432 90 440 90 449 90 c 9
 449 410 l 17
 428 410 l 2
EndSplineSet
Validated: 1
EndChar

StartChar: r
Encoding: 114 114 17
Width: 617
Flags: W
HStem: 0 21G<78 168> 410 90<187.673 420.641>
VStem: 78 90<0 387.801> 449 90<340 380.913>
LayerCount: 2
Fore
SplineSet
168 250 m 2
 168 0 l 25
 78 0 l 25
 78 250 l 2
 78 500 78 500 308 500 c 0
 398 500 539 500 539 340 c 1
 449 340 l 1
 449 410 356 410 310 410 c 0
 308 410 l 0
 168 410 168 410 168 250 c 2
EndSplineSet
Validated: 1
EndChar

StartChar: s
Encoding: 115 115 18
Width: 617
Flags: W
HStem: 0 90<181.309 435.232> 205 90<181.795 434.544> 410 90<181.309 435.232>
VStem: 78 90<104.555 148 308.721 395.642> 449 90<104.358 191.279 352 395.445>
CounterMasks: 1 e0
LayerCount: 2
Fore
SplineSet
317 205 m 6
 304 205 l 6
 199 205 78 206 78 352 c 4
 78 500 168 500 308 500 c 4
 448 500 539 500 539 352 c 5
 449 352 l 5
 449 410 398 410 308 410 c 4
 218 410 168 410 168 352 c 4
 168 296 215 295 299 295 c 6
 312 295 l 6
 417 295 539 294 539 148 c 4
 539 0 448 0 308 0 c 4
 168 0 78 0 78 148 c 5
 168 148 l 5
 168 90 218 90 308 90 c 4
 398 90 449 90 449 148 c 4
 449 204 401 205 317 205 c 6
EndSplineSet
Validated: 1
EndChar

StartChar: t
Encoding: 116 116 19
Width: 617
Flags: W
HStem: 0 90<236.434 447.548> 410 90<192 474> 730 20G<102 192>
VStem: 102 90<130.94 410 500 750>
LayerCount: 2
Fore
SplineSet
192 250 m 10
 192 205 l 17
 192 109 258 90 333 90 c 0
 413 90 454 113 499 135 c 1
 539 60 l 1
 477 29 408 0 333 0 c 0
 117 0 102 162 102 205 c 2
 102 250 l 2
 102 750 l 25
 192 750 l 25
 192 500 l 25
 474 500 l 25
 474 410 l 25
 192 410 l 25
 192 410 192 302 192 250 c 10
EndSplineSet
Validated: 1
EndChar

StartChar: u
Encoding: 117 117 20
Width: 617
Flags: W
HStem: 0 90<229.572 431.289> 480 20G<78 168 449 539>
VStem: 78 90<153.446 500> 449 90<109.673 500>
LayerCount: 2
Fore
SplineSet
449 500 m 1
 539 500 l 1
 539 430 539 317 539 230 c 0
 539 0 538 0 308 0 c 3
 78 0 78 230 78 230 c 0
 78 500 l 1
 168 500 l 1
 168 230 l 0
 168 230 168 90 308 90 c 3
 448 90 449 90 449 230 c 3
 449 312 449 430 449 500 c 1
EndSplineSet
Validated: 1
EndChar

StartChar: v
Encoding: 118 118 21
Width: 617
Flags: MW
HStem: 0 21G<252.72 363.32> 480 20G<78 182.189 434.757 539>
DStem2: 175 500 78 500 0.342045 -0.939684<0 393.175> 308 130 356 0 0.343703 0.939079<0 393.515>
LayerCount: 2
Fore
SplineSet
356 0 m 1
 260 0 l 1
 78 500 l 1
 175 500 l 1
 308 130 l 1
 442 500 l 1
 539 500 l 1
 356 0 l 1
EndSplineSet
Validated: 1
EndChar

StartChar: w
Encoding: 119 119 22
Width: 617
Flags: MW
HStem: 0 21G<132.72 232.891 384.941 484.28> 480 20G<78 171.253 445.747 539>
DStem2: 169 500 78 500 0.113266 -0.993565<0 294.852> 202 207 308 238 0.317705 0.94819<0 63.0706> 415 207 308 238 0.315488 -0.948929<-63.1741 0> 415 207 482 0 0.113266 0.993565<0 294.852>
LayerCount: 2
Fore
SplineSet
202 207 m 1
 264 385 l 1
 354 385 l 1
 415 207 l 1
 448 500 l 5
 539 500 l 5
 482 0 l 5
 392 0 l 5
 308 238 l 1
 226 0 l 1
 135 0 l 1
 78 500 l 1
 169 500 l 1
 202 207 l 1
EndSplineSet
Validated: 1
EndChar

StartChar: x
Encoding: 120 120 23
Width: 617
Flags: MW
HStem: 0 21G<78 201.953 415.814 539> 480 20G<78 201.953 415.814 539>
DStem2: 188 500 78 500 0.575655 -0.817692<0 209.722 337.282 548.155> 78 0 188 0 0.575655 0.817692<63.3221 273.044 400.604 611.477>
LayerCount: 2
Fore
SplineSet
254 250 m 1
 78 500 l 1
 188 500 l 1
 308 328 l 1
 430 500 l 1
 539 500 l 1
 364 250 l 1
 539 0 l 1
 430 0 l 1
 308 172 l 1
 188 0 l 1
 78 0 l 1
 254 250 l 1
EndSplineSet
Validated: 1
EndChar

StartChar: y
Encoding: 121 121 24
Width: 617
Flags: MW
HStem: 480 20G<78 182.189 434.757 539>
DStem2: 175 500 78 500 0.342045 -0.939684<0 393.175> 170 -250 264 -250 0.344255 0.938876<32.3599 265.702 404.28 797.795>
LayerCount: 2
Fore
SplineSet
260 0 m 1
 78 500 l 1
 175 500 l 1
 308 130 l 1
 442 500 l 1
 539 500 l 1
 356 0 l 1
 264 -250 l 1
 170 -250 l 1
 260 0 l 1
EndSplineSet
Validated: 1
EndChar

StartChar: z
Encoding: 122 122 25
Width: 617
Flags: MW
HStem: 0 90<251 539> 410 90<78 366>
DStem2: 78 0 251 90 0.574801 0.818293<173.087 501.043>
LayerCount: 2
Fore
SplineSet
251 90 m 1
 539 90 l 1
 539 0 l 1
 78 0 l 1
 174 136 270 274 366 410 c 1
 78 410 l 1
 78 500 l 1
 539 500 l 1
 443 364 347 226 251 90 c 1
EndSplineSet
Validated: 1
EndChar

StartChar: braceleft
Encoding: 123 123 26
Width: 617
Flags: W
HStem: -90 90<370.67 500> 285 90<117 248.509> 660 90<370.67 500>
VStem: 264 90<20.6262 268.386 391.614 639.374>
CounterMasks: 1 e0
LayerCount: 2
Fore
SplineSet
117 285 m 1
 117 285 117 332 117 375 c 1
 263 375 264 376 264 518 c 0
 264 750 354 750 500 750 c 1
 500 660 l 1
 354 660 354 660 354 518 c 0
 354 420 354 363 336 330 c 5
 354 297 354 240 354 142 c 0
 354 0 354 0 500 0 c 1
 500 -90 l 1
 354 -90 264 -90 264 142 c 0
 264 284 263 285 117 285 c 1
EndSplineSet
Validated: 1
EndChar

StartChar: braceright
Encoding: 125 125 27
Width: 617
Flags: W
HStem: -90 90<117 246.603> 285 90<369.038 500> 660 90<117 246.603>
VStem: 264 90<20.6262 269.125 390.875 639.374>
CounterMasks: 1 e0
LayerCount: 2
Fore
SplineSet
500 285 m 1
 354 285 354 284 354 142 c 0
 354 -90 263 -90 117 -90 c 1
 117 0 l 1
 263 0 264 0 264 142 c 0
 264 152 264 161 264 170 c 0
 264 251 265 300 281 330 c 1
 265 360 264 409 264 490 c 0
 264 499 264 508 264 518 c 0
 264 660 263 660 117 660 c 1
 117 750 l 1
 263 750 354 750 354 518 c 0
 354 376 354 375 500 375 c 1
 500 285 l 1
EndSplineSet
Validated: 1
EndChar

StartChar: bracketleft
Encoding: 91 91 28
Width: 617
Flags: W
HStem: -90 90<207 500> 660 90<207 500>
VStem: 117 90<0 660>
LayerCount: 2
Fore
SplineSet
117 750 m 0
 500 750 l 0
 500 660 l 0
 207 660 l 0
 207 0 l 0
 500 0 l 0
 500 -90 l 0
 117 -90 l 0
 117 750 l 0
EndSplineSet
Validated: 1
EndChar

StartChar: bracketright
Encoding: 93 93 29
Width: 617
Flags: W
HStem: -90 90<117 410> 660 90<117 410>
VStem: 410 90<0 660>
LayerCount: 2
Fore
SplineSet
500 750 m 0
 500 -90 l 0
 117 -90 l 0
 117 0 l 0
 410 0 l 0
 410 660 l 0
 117 660 l 0
 117 750 l 0
 500 750 l 0
EndSplineSet
Validated: 1
EndChar

StartChar: quotesingle
Encoding: 39 39 31
Width: 617
Flags: W
HStem: 730 20G<286.5 330.5>
VStem: 264 90<435.075 739.154>
LayerCount: 2
Fore
SplineSet
354 672 m 5
 354 582 353 410 308 410 c 7
 265 410 264 568 264 660 c 6
 264 672 l 6
 264 678 265 750 308 750 c 4
 353 750 354 672 354 672 c 5
EndSplineSet
Validated: 1
EndChar

StartChar: parenleft
Encoding: 40 40 32
Width: 617
Flags: W
HStem: -90 90<387.572 500> 660 90<387.572 500>
VStem: 117 91<206.258 453.742>
LayerCount: 2
Fore
SplineSet
500 0 m 0
 500 -90 l 0
 117 -90 117 330 117 330 c 0
 117 330 117 750 500 750 c 0
 500 660 l 0
 208 660 208 334 208 330 c 0
 208 326 208 0 500 0 c 0
EndSplineSet
Validated: 1
EndChar

StartChar: parenright
Encoding: 41 41 33
Width: 617
Flags: W
HStem: -90 90<117 229.428> 660 90<117 229.428>
VStem: 409 91<206.258 453.742>
LayerCount: 2
Fore
SplineSet
117 0 m 0
 409 0 409 326 409 330 c 0
 409 334 409 660 117 660 c 0
 117 750 l 0
 500 750 500 330 500 330 c 0
 500 330 500 -90 117 -90 c 0
 117 0 l 0
EndSplineSet
Validated: 1
EndChar

StartChar: asterisk
Encoding: 42 42 34
Width: 617
Flags: W
VStem: 264 90<80 243 417 580>
LayerCount: 2
Fore
SplineSet
78 438 m 1
 130 510 l 1
 264 417 l 1
 264 580 l 1
 354 580 l 1
 354 417 l 1
 488 510 l 1
 539 438 l 1
 386 330 l 5
 539 222 l 1
 488 150 l 1
 354 243 l 1
 354 80 l 1
 264 80 l 1
 264 243 l 1
 130 150 l 1
 78 222 l 1
 230 330 l 1
 78 438 l 1
EndSplineSet
Validated: 1
EndChar

StartChar: plus
Encoding: 43 43 35
Width: 617
Flags: W
HStem: 285 90<78 264 354 539>
VStem: 264 90<80 285 375 580>
LayerCount: 2
Fore
SplineSet
539 375 m 1
 539 285 l 1
 354 285 l 1
 354 80 l 1
 264 80 l 1
 264 285 l 1
 78 285 l 1
 78 375 l 1
 264 375 l 1
 264 580 l 1
 354 580 l 1
 354 375 l 1
 539 375 l 1
EndSplineSet
Validated: 1
EndChar

StartChar: hyphen
Encoding: 45 45 36
Width: 617
Flags: W
HStem: 285 90<78 539>
LayerCount: 2
Fore
SplineSet
78 375 m 0
 539 375 l 0
 539 285 l 0
 78 285 l 0
 78 375 l 0
EndSplineSet
Validated: 1
EndChar

StartChar: period
Encoding: 46 46 37
Width: 617
Flags: W
HStem: 0 180<254.809 361.574>
VStem: 219 179<36.4257 143.574>
LayerCount: 2
Fore
SplineSet
308 180 m 0
 353 180 398 135 398 90 c 0
 398 45 353 0 308 0 c 0
 263 0 219 45 219 90 c 0
 219 135 263 180 308 180 c 0
EndSplineSet
Validated: 1
EndChar

StartChar: B
Encoding: 66 66 39
Width: 617
Flags: W
HStem: 0 90<168 383.961> 386 67<168 368.57> 660 90<168 368.354>
VStem: 78 90<90 386 453 660> 404 90<489.656 621.68> 449 90<157.424 317.235>
LayerCount: 2
Fore
SplineSet
168 90 m 1xf4
 215 90 261 90 308 90 c 0
 448 90 449 238 449 238 c 1
 449 238 448 386 308 386 c 2
 168 386 l 1
 168 90 l 1xf4
78 386 m 1
 78 453 l 1
 78 750 l 1
 308 750 l 2
 494 750 494 556 494 556 c 1xf8
 494 556 494 459 432 425 c 1
 538 367 539 238 539 238 c 2
 539 238 538 0 308 0 c 2
 78 0 l 1
 78 386 l 1
308 453 m 0
 404 453 404 556 404 556 c 1
 404 556 404 660 308 660 c 2
 168 660 l 1
 168 453 l 1
 215 453 261 453 308 453 c 0
EndSplineSet
Validated: 1
EndChar

StartChar: C
Encoding: 67 67 40
Width: 617
Flags: W
HStem: 0 90<240.447 420.641> 660 90<240.447 420.641>
VStem: 78 90<188.77 561.23> 449 90<119.087 160 590 630.913>
LayerCount: 2
Fore
SplineSet
539 160 m 5
 539 0 398 0 308 0 c 4
 168 0 78 90 78 375 c 4
 78 660 168 750 308 750 c 4
 398 750 539 750 539 590 c 5
 449 590 l 5
 449 660 356 660 310 660 c 4
 308 660 l 4
 218 660 168 590 168 375 c 4
 168 160 218 90 308 90 c 4
 310 90 l 4
 356 90 449 90 449 160 c 5
 539 160 l 5
EndSplineSet
Validated: 1
EndChar

StartChar: D
Encoding: 68 68 41
Width: 617
VWidth: 975
Flags: W
HStem: 0 90<168 363.971> 660 90<168 363.971>
VStem: 78 90<90 660> 449 90<222.473 527.527>
LayerCount: 2
Fore
SplineSet
168 750 m 1
 186 750 l 2
 217 750 265 750 308 750 c 3
 538 750 539 375 539 375 c 0
 539 375 538 0 308 0 c 3
 266 0 212 0 190 0 c 2
 78 0 l 9
 78 238 78 500 78 612 c 0
 78 654 78 696 78 750 c 25
 168 750 l 1
190 90 m 2
 308 90 l 3
 448 90 449 375 449 375 c 0
 449 375 448 660 308 660 c 0
 266 660 219 660 184 660 c 10
 184 660 177 660 168 660 c 9
 168 90 l 17
 190 90 l 2
EndSplineSet
Validated: 1
EndChar

StartChar: E
Encoding: 69 69 42
Width: 617
Flags: W
HStem: 0 90<168 539> 330 90<168 354> 660 90<168 539>
VStem: 78 90<90 330 420 660>
CounterMasks: 1 e0
LayerCount: 2
Fore
SplineSet
78 750 m 1
 539 750 l 1
 539 660 l 1
 168 660 l 1
 168 420 l 1
 354 420 l 1
 354 330 l 1
 168 330 l 1
 168 90 l 1
 539 90 l 1
 539 0 l 1
 78 0 l 1
 78 750 l 1
EndSplineSet
Validated: 1
EndChar

StartChar: F
Encoding: 70 70 43
Width: 617
Flags: W
HStem: 0 21G<78 168> 330 90<168 354> 660 90<168 539>
VStem: 78 90<0 330 420 660>
LayerCount: 2
Fore
SplineSet
78 750 m 1
 539 750 l 1
 539 660 l 1
 168 660 l 1
 168 420 l 1
 354 420 l 1
 354 330 l 1
 168 330 l 1
 168 0 l 1
 78 0 l 1
 78 750 l 1
EndSplineSet
Validated: 1
EndChar

StartChar: L
Encoding: 76 76 44
Width: 617
Flags: W
HStem: 0 90<168 539> 730 20G<78 168>
VStem: 78 90<90 750>
LayerCount: 2
Fore
SplineSet
78 750 m 25
 168 750 l 25
 168 90 l 25
 539 87 l 25
 539 0 l 25
 78 0 l 25
 78 750 l 25
EndSplineSet
Validated: 1
EndChar

StartChar: T
Encoding: 84 84 45
Width: 617
Flags: W
HStem: 0 21G<264 354> 670 80<78 264 354 539>
VStem: 264 90<0 670>
LayerCount: 2
Fore
SplineSet
78 750 m 0
 539 750 l 0
 539 670 l 0
 354 670 l 0
 354 0 l 0
 264 0 l 0
 264 670 l 0
 78 670 l 0
 78 750 l 0
EndSplineSet
Validated: 1
EndChar

StartChar: underscore
Encoding: 95 95 46
Width: 617
Flags: W
HStem: -90 90<78 539>
LayerCount: 2
Fore
SplineSet
78 0 m 0
 539 0 l 0
 539 -90 l 0
 78 -90 l 0
 78 0 l 0
EndSplineSet
Validated: 1
EndChar

StartChar: exclam
Encoding: 33 33 48
Width: 617
VWidth: 0
Flags: W
HStem: -90 180<254.809 361.574> 730 20G<264 354>
VStem: 219 179<-53.5743 53.5743> 264 90<250 750>
LayerCount: 2
Fore
SplineSet
308 90 m 0xe0
 353 90 398 45 398 0 c 0
 398 -45 353 -90 308 -90 c 0
 263 -90 219 -45 219 0 c 0
 219 45 263 90 308 90 c 0xe0
264 750 m 25xd0
 354 750 l 25
 354 250 l 25
 264 250 l 25
 264 750 l 25xd0
EndSplineSet
Validated: 1
EndChar

StartChar: numbersign
Encoding: 35 35 49
Width: 617
VWidth: 0
Flags: W
HStem: 0 21G<168 258 360 449> 160 90<78 168 258 360 449 539> 500 90<78 168 258 360 449 539> 730 20G<168 258 360 449>
VStem: 168 90<0 160 250 500 590 750> 360 89<0 160 250 500 590 750>
LayerCount: 2
Fore
SplineSet
168 750 m 1
 258 750 l 1
 258 590 l 1
 360 590 l 1
 360 750 l 1
 449 750 l 1
 449 590 l 1
 539 590 l 1
 539 500 l 1
 449 500 l 1
 449 250 l 1
 539 250 l 1
 539 160 l 1
 449 160 l 1
 449 0 l 1
 360 0 l 1
 360 160 l 1
 258 160 l 1
 258 0 l 1
 168 0 l 1
 168 160 l 1
 78 160 l 1
 78 250 l 1
 168 250 l 1
 168 500 l 1
 78 500 l 1
 78 590 l 1
 168 590 l 1
 168 750 l 1
360 500 m 1
 258 500 l 1
 258 250 l 1
 360 250 l 1
 360 500 l 1
EndSplineSet
Validated: 1
EndChar

StartChar: dollar
Encoding: 36 36 50
Width: 617
Flags: W
HStem: 0 21G<264 354> 90 90<182.609 264 354 435.217> 330 90<179.809 264 354 434.623> 570 90<182.609 264 354 422.347> 730 20G<264 354>
VStem: 78 90<196.092 257 432.625 555.831> 264 90<0 90 180 330 420 570 660 750> 449 90<194.169 317.375 493 541.958>
LayerCount: 2
Fore
SplineSet
264 750 m 1
 354 750 l 1
 354 660 l 1
 468 658 539 660 539 493 c 1
 449 493 l 1
 449 540 416 568 354 570 c 1
 354 420 l 1
 448 417 539 420 539 257 c 0
 539 90 468 92 354 90 c 1
 354 0 l 1
 264 0 l 1
 264 90 l 1
 150 92 78 90 78 257 c 1
 168 257 l 1
 168 180 202 182 264 180 c 1
 264 330 l 1
 170 333 78 330 78 493 c 0
 78 660 150 658 264 660 c 1
 264 750 l 1
264 570 m 1
 202 568 168 570 168 493 c 0
 168 420 202 422 264 420 c 1
 264 570 l 1
354 180 m 1
 416 182 449 180 449 257 c 0
 449 330 416 328 354 330 c 1
 354 180 l 1
EndSplineSet
Validated: 1
EndChar

StartChar: percent
Encoding: 37 37 51
Width: 617
VWidth: 0
Flags: W
HStem: 0 80<414.178 516.152> 231 80<414.178 516.152> 440 79<99.0344 200.966> 671 79<99.0344 200.966>
VStem: 0 80<535.923 650.959> 220 80<537.323 650.959> 315 80<97.3228 213.038> 535 82<97.3228 211.32>
LayerCount: 2
Fore
SplineSet
150 440 m 0
 0 440 0 595 0 595 c 1
 0 595 0 750 150 750 c 0
 300 750 300 595 300 595 c 1
 300 591 300 440 150 440 c 0
80 597 m 2
 80 592 l 2
 80 579 84 519 150 519 c 3
 216 519 220 579 220 592 c 2
 220 597 l 2
 220 610 216 671 150 671 c 0
 84 671 80 610 80 597 c 2
465 0 m 0
 316 0 315 151 315 155 c 0
 315 159 316 311 465 311 c 0
 616 311 617 155 617 155 c 1
 617 151 616 0 465 0 c 0
395 158 m 2
 395 153 l 2
 395 140 399 80 465 80 c 3
 531 80 535 140 535 153 c 2
 535 158 l 2
 535 171 531 231 465 231 c 0
 399 231 395 171 395 158 c 2
96 0 m 1
 0 0 l 1
 521 750 l 1
 617 750 l 1
 96 0 l 1
EndSplineSet
Validated: 1
EndChar

StartChar: ampersand
Encoding: 38 38 52
Width: 617
VWidth: 975
Flags: W
HStem: 0 90<206.839 407.383> 500 21G<354 444> 584 90<196.025 328.96>
VStem: 78 90<127.094 326.005 455.19 555.055> 354 90<500 558.523> 449 90<0 36.2512 203.625 312>
LayerCount: 2
Fore
SplineSet
444 500 m 1
 354 500 l 1
 354 584 274 584 264 584 c 0
 255 584 168 584 168 500 c 0
 168 442 336 331 446 201 c 1
 449 222 449 243 449 262 c 2
 449 312 l 1
 539 312 l 1
 539 231 525 168 503 120 c 1
 525 81 539 41 539 0 c 1
 449 0 l 1
 449 12 447 26 444 38 c 1
 414 12 384 0 354 0 c 0
 126 0 78 52 78 250 c 0
 78 320 105 360 133 386 c 1
 100 423 78 462 78 500 c 1
 78 500 78 674 264 674 c 0
 444 674 444 500 444 500 c 1
192 328 m 1
 174 314 168 299 168 250 c 0
 168 110 186 90 354 90 c 0
 378 90 396 100 410 114 c 1
 358 191 266 260 192 328 c 1
EndSplineSet
Validated: 1
EndChar

StartChar: comma
Encoding: 44 44 53
Width: 617
Flags: W
HStem: -160 340<263 353>
VStem: 219 179<39.5584 143.574>
LayerCount: 2
Fore
SplineSet
300 1 m 1
 258 7 219 48 219 90 c 0
 219 135 263 180 308 180 c 0
 353 180 398 135 398 90 c 0
 398 -12 354 -160 219 -160 c 0
 212 -160 210 -159 210 -157 c 0
 210 -147 276 -111 300 1 c 1
EndSplineSet
Validated: 1
EndChar

StartChar: slash
Encoding: 47 47 54
Width: 617
VWidth: 0
Flags: W
HStem: 730 20G<397.167 500>
LayerCount: 2
Fore
SplineSet
213 -90 m 1
 180 -90 150 -90 117 -90 c 1
 404 750 l 1
 500 750 l 1
 213 -90 l 1
EndSplineSet
Validated: 1
EndChar

StartChar: zero
Encoding: 48 48 55
Width: 617
Flags: W
HStem: 0 90<217.325 399.002> 660 90<217.26 399.289>
VStem: 78 90<250.91 591.108> 449 90<158.892 498.591>
LayerCount: 2
Fore
SplineSet
539 375 m 0
 539 0 448 0 308 0 c 0
 168 0 78 0 78 375 c 0
 78 750 168 750 308 750 c 0
 448 750 539 750 539 375 c 0
444 500 m 1
 202 130 l 1
 224 94 252 90 308 90 c 0
 398 90 449 90 449 375 c 0
 449 426 447 466 444 500 c 1
415 620 m 1
 393 656 366 660 308 660 c 0
 218 660 168 660 168 375 c 0
 168 324 170 283 173 249 c 1
 415 620 l 1
EndSplineSet
Validated: 1
EndChar

StartChar: one
Encoding: 49 49 56
Width: 617
VWidth: 0
Flags: W
HStem: 0 21G<354 444> 730 20G<317.65 444>
VStem: 354 90<0 625>
LayerCount: 2
Fore
SplineSet
188 396 m 1
 78 396 l 17
 332 750 l 1
 369 750 407 750 444 750 c 1
 444 0 l 1
 354 0 l 1
 354 625 l 1
 188 396 l 1
EndSplineSet
Validated: 1
EndChar

StartChar: two
Encoding: 50 50 57
Width: 617
VWidth: 0
Flags: W
HStem: 0 90<220 539> 500 21G<78 168> 660 90<216.411 399.728>
VStem: 78 90<500 611.157> 449 90<438.589 612.335>
LayerCount: 2
Fore
SplineSet
220 90 m 1
 539 90 l 1
 539 0 l 1
 385 0 126 0 78 0 c 1
 78 16 78 60 78 90 c 1
 78 90 449 375 449 500 c 0
 449 572 448 660 308 660 c 0
 168 660 168 570 168 500 c 1
 78 500 l 1
 78 620 78 750 308 750 c 0
 538 750 539 610 539 500 c 0
 539 346 220 90 220 90 c 1
EndSplineSet
Validated: 1
EndChar

StartChar: three
Encoding: 51 51 58
Width: 617
Flags: W
HStem: 0 90<218.552 397.698> 354 90<308 383.573> 660 90<231.251 384.953>
VStem: 78 90<141.673 222> 100 90<552 619.025> 427 89<485.039 619.325> 449 90<141.178 302.784>
LayerCount: 2
Fore
SplineSet
539 222 m 0xe2
 539 102 448 0 308 0 c 0
 168 0 78 102 78 222 c 1
 168 222 l 1
 168 132 218 90 308 90 c 0
 398 90 449 132 449 222 c 0xf2
 449 312 398 354 308 354 c 1
 308 444 l 1
 378 444 427 482 427 552 c 0
 427 622 378 660 308 660 c 0
 238 660 190 622 190 552 c 1
 100 552 l 1
 100 672 168 750 308 750 c 0
 448 750 516 672 516 552 c 0xec
 516 468 475 428 449 398 c 1
 475 368 539 340 539 222 c 0xe2
EndSplineSet
Validated: 1
EndChar

StartChar: four
Encoding: 52 52 59
Width: 617
VWidth: 0
Flags: W
HStem: 0 21G<449 539> 285 90<200 449> 730 20G<409.333 539>
VStem: 449 90<0 285 375 640>
LayerCount: 2
Fore
SplineSet
539 750 m 1
 539 0 l 1
 449 0 l 1
 449 285 l 1
 78 285 l 1
 78 375 l 1
 428 750 l 1
 465 750 502 750 539 750 c 1
449 375 m 1
 449 640 l 1
 200 375 l 1
 449 375 l 1
EndSplineSet
Validated: 1
EndChar

StartChar: five
Encoding: 53 53 60
Width: 617
Flags: W
HStem: 0 90<78 386.895> 375 90<168 392.401> 660 90<168 474>
VStem: 78 90<465 660> 449 90<150 319.598>
LayerCount: 2
Fore
SplineSet
78 375 m 1
 78 750 l 1
 474 750 l 1
 474 660 l 1
 168 660 l 1
 168 465 l 1
 308 465 l 2
 448 465 539 378 539 232 c 0
 539 112 448 0 308 0 c 2
 78 0 l 1
 78 90 l 1
 308 90 l 2
 398 90 449 147 449 232 c 0
 449 317 408 375 308 375 c 2
 78 375 l 1
EndSplineSet
Validated: 1
EndChar

StartChar: six
Encoding: 54 54 61
Width: 617
Flags: W
HStem: 0 90<223.937 392.283> 375 90<224.535 392.283> 660 90<238.896 394.045>
VStem: 78 90<147.52 316.797 415 553.828> 417 90<602 637> 449 90<147.097 317.122>
LayerCount: 2
Fore
SplineSet
308 90 m 0xf4
 398 90 449 142 449 232 c 0
 449 322 398 375 308 375 c 0
 218 375 168 322 168 232 c 0
 168 142 218 90 308 90 c 0xf4
78 375 m 2
 78 660 168 750 308 750 c 0
 448 750 507 670 507 602 c 1
 417 602 l 1xf8
 417 618 398 660 308 660 c 0
 225 660 175 599 169 415 c 1
 193 439 254 465 308 465 c 0
 448 465 539 374 539 232 c 0
 539 90 448 0 308 0 c 0
 168 0 78 90 78 232 c 2
 78 375 l 2
EndSplineSet
Validated: 1
EndChar

StartChar: seven
Encoding: 55 55 62
Width: 617
VWidth: 0
Flags: W
HStem: 0 21G<78 238> 660 90<78 396>
LayerCount: 2
Fore
SplineSet
78 750 m 1
 232 750 385 750 539 750 c 1
 419 500 298 250 178 0 c 1
 145 0 111 0 78 0 c 1
 396 660 l 1
 78 660 l 1
 78 750 l 1
EndSplineSet
Validated: 1
EndChar

StartChar: eight
Encoding: 56 56 63
Width: 617
Flags: W
HStem: 0 90<218.552 397.698> 354 90<232.679 383.573> 660 90<231.251 384.953>
VStem: 78 90<141.178 303.002> 100 90<485.039 619.325> 427 89<485.039 619.325> 449 90<141.178 302.784>
LayerCount: 2
Fore
SplineSet
308 660 m 0xec
 238 660 190 622 190 552 c 0
 190 482 238 444 308 444 c 0
 378 444 427 482 427 552 c 0
 427 622 378 660 308 660 c 0xec
539 222 m 0xe2
 539 102 448 0 308 0 c 0
 168 0 78 102 78 222 c 0
 78 341 142 368 168 398 c 1xf2
 142 428 100 468 100 552 c 0
 100 672 168 750 308 750 c 0
 448 750 516 672 516 552 c 0xec
 516 468 475 428 449 398 c 1
 475 368 539 340 539 222 c 0xe2
308 354 m 0
 218 354 168 312 168 222 c 0
 168 132 218 90 308 90 c 0
 398 90 449 132 449 222 c 0
 449 312 398 354 308 354 c 0
EndSplineSet
Validated: 1
EndChar

StartChar: nine
Encoding: 57 57 64
Width: 617
Flags: W
HStem: 0 21G<449 539> 285 90<223.937 392.51> 660 90<223.937 392.283>
VStem: 78 90<432.878 602.903> 449 90<0 336 433.203 602.48>
LayerCount: 2
Fore
SplineSet
308 660 m 0
 218 660 168 608 168 518 c 0
 168 428 218 375 308 375 c 0
 398 375 449 428 449 518 c 0
 449 608 398 660 308 660 c 0
449 336 m 1
 425 312 364 285 308 285 c 0
 168 285 78 376 78 518 c 0
 78 660 168 750 308 750 c 0
 448 750 539 660 539 518 c 2
 539 0 l 1
 449 0 l 1
 449 336 l 1
EndSplineSet
Validated: 1
EndChar

StartChar: less
Encoding: 60 60 67
Width: 617
Flags: W
LayerCount: 2
Fore
SplineSet
117 285 m 1
 117 375 l 1
 500 580 l 1
 500 478 l 1
 224 330 l 1
 500 182 l 1
 500 80 l 1
 117 285 l 1
EndSplineSet
Validated: 1
EndChar

StartChar: greater
Encoding: 62 62 68
Width: 617
Flags: W
LayerCount: 2
Fore
SplineSet
500 285 m 1
 117 80 l 1
 117 182 l 1
 392 330 l 1
 117 478 l 1
 117 580 l 1
 500 375 l 1
 500 285 l 1
EndSplineSet
Validated: 1
EndChar

StartChar: question
Encoding: 63 63 69
Width: 617
Flags: W
HStem: -90 180<254.809 361.574> 375 90<354 425.477> 660 90<192.352 424.083>
VStem: 78 90<562 636.074> 219 179<-53.5743 53.5743> 264 90<250 375> 449 90<487.902 636.573>
LayerCount: 2
Fore
SplineSet
308 90 m 0xfa
 353 90 398 45 398 0 c 0
 398 -45 353 -90 308 -90 c 0
 263 -90 219 -45 219 0 c 0
 219 45 263 90 308 90 c 0xfa
354 375 m 1xf6
 354 250 l 1
 264 250 l 1
 264 465 l 1
 308 465 l 2
 313 465 l 0
 400 465 449 466 449 562 c 0
 449 660 398 660 308 660 c 0
 218 660 168 660 168 562 c 1
 78 562 l 1
 78 750 168 750 308 750 c 0
 448 750 539 750 539 562 c 0
 539 395 468 377 354 375 c 1xf6
EndSplineSet
Validated: 1
EndChar

StartChar: at
Encoding: 64 64 70
Width: 617
Flags: W
HStem: 0 90<240.447 420.641> 228 90<322.033 449> 432 90<322.033 449> 660 90<240.447 420.641>
VStem: 78 90<188.77 561.23> 219 89<331.281 417.568> 449 90<119.087 160 318 432 522 630.913>
LayerCount: 2
Fore
SplineSet
308 375 m 0
 308 319 353 318 425 318 c 2
 449 318 l 1
 449 432 l 1
 428 432 l 2
 422 432 l 0
 366 432 308 431 308 375 c 0
539 160 m 1
 539 0 398 0 308 0 c 0
 168 0 78 90 78 375 c 0
 78 660 168 750 308 750 c 0
 398 750 539 750 539 590 c 2
 539 228 l 1
 428 228 l 2
 288 228 219 263 219 375 c 0
 219 501 288 522 428 522 c 2
 449 522 l 1
 449 590 l 2
 449 660 356 660 310 660 c 2
 308 660 l 2
 218 660 168 590 168 375 c 0
 168 160 218 90 308 90 c 2
 310 90 l 2
 356 90 449 90 449 160 c 1
 539 160 l 1
EndSplineSet
Validated: 1
EndChar

StartChar: A
Encoding: 65 65 71
Width: 617
Flags: MW
HStem: 0 21G<78 175.78 441.122 539> 205 90<243 374> 730 20G<255.147 360.88>
DStem2: 78 0 171 0 0.239488 0.970899<22.2724 233.042 325.931 602.67> 356 750 308 564 0.240708 -0.970598<168.977 445.955 538.604 749.612>
LayerCount: 2
Fore
SplineSet
356 750 m 1
 539 0 l 1
 446 0 l 1
 396 205 l 1
 220 205 l 1
 171 0 l 1
 78 0 l 1
 260 750 l 1
 356 750 l 1
374 295 m 1
 308 564 l 1
 243 295 l 1
 374 295 l 1
EndSplineSet
Validated: 1
EndChar

StartChar: G
Encoding: 71 71 72
Width: 617
Flags: W
HStem: 0 90<240.447 420.641> 285 90<308 449> 660 90<240.447 420.641>
VStem: 78 90<188.77 561.23> 449 90<119.087 285 590 630.913>
LayerCount: 2
Fore
SplineSet
449 375 m 5
 449 375 539 375 539 285 c 5
 539 160 l 6
 539 0 398 0 308 0 c 4
 168 0 78 90 78 375 c 4
 78 660 168 750 308 750 c 4
 398 750 539 750 539 590 c 5
 449 590 l 5
 449 660 356 660 310 660 c 4
 308 660 l 4
 218 660 168 590 168 375 c 4
 168 160 218 90 308 90 c 4
 310 90 l 4
 356 90 449 90 449 160 c 6
 449 285 l 5
 308 285 l 5
 308 375 l 5
 449 375 l 5
EndSplineSet
Validated: 1
EndChar

StartChar: H
Encoding: 72 72 73
Width: 617
Flags: W
HStem: 0 21G<78 168 449 539> 330 90<168 449> 730 20G<78 168 449 539>
VStem: 78 90<0 330 420 750> 449 90<0 330 420 750>
LayerCount: 2
Fore
SplineSet
78 750 m 1
 168 750 l 1
 168 640 168 530 168 420 c 1
 449 420 l 1
 449 530 449 640 449 750 c 1
 539 750 l 1
 539 0 l 1
 449 0 l 1
 449 330 l 1
 168 330 l 1
 168 0 l 1
 78 0 l 1
 78 750 l 1
EndSplineSet
Validated: 1
EndChar

StartChar: I
Encoding: 73 73 74
Width: 617
Flags: W
HStem: 0 90<98 264 354 520> 660 90<98 264 354 520>
VStem: 264 90<90 660>
LayerCount: 2
Fore
SplineSet
520 750 m 1
 520 660 l 1
 354 660 l 1
 354 90 l 1
 520 90 l 1
 520 0 l 1
 98 0 l 1
 98 90 l 1
 264 90 l 1
 264 660 l 1
 98 660 l 1
 98 750 l 1
 520 750 l 1
EndSplineSet
Validated: 1
EndChar

StartChar: J
Encoding: 74 74 75
Width: 617
Flags: W
HStem: 0 90<202.343 414.015> 660 90<308 449>
VStem: 78 90<134.094 250> 449 90<134.094 660>
LayerCount: 2
Fore
SplineSet
449 660 m 1
 308 660 l 1
 308 750 l 1
 385 750 462 750 539 750 c 1
 539 583 539 417 539 250 c 0
 539 0 448 0 308 0 c 0
 168 0 78 0 78 250 c 1
 168 250 l 1
 168 90 218 90 308 90 c 0
 398 90 449 90 449 250 c 2
 449 660 l 1
EndSplineSet
Validated: 1
EndChar

StartChar: K
Encoding: 75 75 76
Width: 617
VWidth: 0
Flags: MW
HStem: 0 21G<78 187.559 430.294 539> 730 20G<78 168 394.5 539>
VStem: 78 90<186 750>
DStem2: 168 186 308 272 0.434682 0.900584<0 138.306 252.8 626.163> 358 375 308 272 0.434682 -0.900584<71.0261 373.363>
LayerCount: 2
Fore
SplineSet
78 750 m 1
 168 750 l 1
 168 186 l 1
 259 374 349 562 440 750 c 1
 539 750 l 1
 358 375 l 1
 539 0 l 1
 506 0 473 0 440 0 c 1
 308 272 l 1
 178 0 l 1
 145 0 111 0 78 0 c 1
 78 750 l 1
EndSplineSet
Validated: 1
EndChar

StartChar: M
Encoding: 77 77 77
Width: 617
VWidth: 0
Flags: MW
HStem: 0 21G<78 168 449 539> 730 20G<78 187.489 430.365 539>
VStem: 78 90<0 568> 449 90<0 568>
DStem2: 308 476 168 568 0.436627 -0.899643<-143.895 0> 308 476 360 375 0.430774 0.90246<0 143.765>
LayerCount: 2
Fore
SplineSet
449 568 m 1
 360 375 l 1
 259 375 l 1
 168 568 l 1
 168 0 l 1
 78 0 l 1
 78 750 l 1
 111 750 145 750 178 750 c 1
 308 476 l 1
 440 750 l 1
 473 750 506 750 539 750 c 1
 539 0 l 1
 449 0 l 1
 449 568 l 1
EndSplineSet
Validated: 1
EndChar

StartChar: N
Encoding: 78 78 78
Width: 617
VWidth: 0
Flags: MW
HStem: 0 21G<78 168 394.5 539> 730 20G<78 223 449 539>
VStem: 78 90<0 564> 449 90<186 750>
DStem2: 178 750 168 564 0.434682 -0.900584<163.162 625.728>
LayerCount: 2
Fore
SplineSet
449 750 m 1
 539 750 l 1
 539 0 l 1
 506 0 473 0 440 0 c 1
 349 188 258 376 168 564 c 1
 168 0 l 1
 78 0 l 1
 78 750 l 1
 111 750 145 750 178 750 c 1
 268 562 358 374 449 186 c 1
 449 750 l 1
EndSplineSet
Validated: 1
EndChar

StartChar: O
Encoding: 79 79 79
Width: 617
Flags: W
HStem: 0 90<217.26 399.002> 660 90<217.26 399.002>
VStem: 78 90<158.892 591.108> 449 90<158.892 591.108>
LayerCount: 2
Fore
SplineSet
539 375 m 0
 539 0 448 0 308 0 c 0
 168 0 78 0 78 375 c 0
 78 750 168 750 308 750 c 0
 448 750 539 750 539 375 c 0
308 660 m 0
 218 660 168 660 168 375 c 0
 168 90 218 90 308 90 c 0
 398 90 449 90 449 375 c 3
 449 660 398 660 308 660 c 0
EndSplineSet
Validated: 1
EndChar

StartChar: P
Encoding: 80 80 80
Width: 617
Flags: W
HStem: 0 21G<78 168> 330 90<168 392.08> 660 90<168 392.08>
VStem: 78 90<0 330 420 660> 449 90<478.129 601.871>
LayerCount: 2
Fore
SplineSet
168 420 m 1
 308 420 l 2
 448 420 449 540 449 540 c 1
 449 540 448 660 308 660 c 2
 168 660 l 1
 168 420 l 1
78 750 m 1
 155 750 231 750 308 750 c 0
 538 750 539 540 539 540 c 1
 539 540 538 330 308 330 c 2
 168 330 l 1
 168 0 l 1
 78 0 l 1
 78 750 l 1
EndSplineSet
Validated: 1
EndChar

StartChar: Q
Encoding: 81 81 81
Width: 617
Flags: MW
HStem: 0 90<217.26 376.187> 660 90<217.26 399.002>
VStem: 78 90<158.892 591.108> 449 90<226.652 591.108>
DStem2: 402 285 302 285 0.435809 -0.900039<0 73.3485 216.275 273.072>
LayerCount: 2
Fore
SplineSet
308 660 m 0
 218 660 168 660 168 375 c 0
 168 90 218 90 308 90 c 0
 336 90 363 98 383 118 c 1
 342 204 343 199 302 285 c 1
 402 285 l 1
 434 219 l 1
 444 261 449 313 449 375 c 0
 449 660 398 660 308 660 c 0
415 51 m 1
 380 18 341 0 308 0 c 0
 168 0 78 0 78 375 c 0
 78 750 168 750 308 750 c 0
 448 750 539 750 539 375 c 0
 539 277 513 194 476 130 c 1
 539 0 l 1
 506 0 473 0 440 0 c 1
 415 51 l 1
EndSplineSet
Validated: 1
EndChar

StartChar: R
Encoding: 82 82 82
Width: 617
Flags: MW
HStem: 0 21G<78 168 430.303 539> 330 90<168 280> 660 90<168 392.08>
VStem: 78 90<0 330 420 660> 449 90<474.382 601.871>
DStem2: 377 337 280 330 0.433253 -0.901273<0 331.024>
LayerCount: 2
Fore
SplineSet
78 750 m 1
 155 750 231 750 308 750 c 0
 538 750 539 540 539 540 c 1
 539 398 407 337 377 337 c 1
 539 0 l 1
 506 0 473 0 440 0 c 1
 280 330 l 1
 168 330 l 1
 168 0 l 1
 78 0 l 1
 78 750 l 1
168 420 m 1
 308 420 l 2
 448 420 449 540 449 540 c 1
 449 540 448 660 308 660 c 2
 168 660 l 1
 168 420 l 1
EndSplineSet
Validated: 1
EndChar

StartChar: S
Encoding: 83 83 83
Width: 617
Flags: W
HStem: 0 90<192.619 413.563> 352 90<187.751 430.604> 660 90<192.619 428.502>
VStem: 78 90<114.241 180 462.316 636.573> 449 90<124.554 331.3 570 640.827>
LayerCount: 2
Fore
SplineSet
78 562 m 4
 78 750 168 750 308 750 c 4
 448 750 539 716 539 570 c 5
 449 570 l 5
 449 654 412 660 344 660 c 6
 308 660 l 6
 218 660 168 660 168 562 c 4
 168 442 187 442 308 442 c 7
 312 442 l 0
 450 442 539 441 539 232 c 4
 539 0 448 0 308 0 c 4
 168 0 78 0 78 180 c 5
 168 180 l 5
 168 91 218 90 306 90 c 6
 308 90 l 6
 398 90 449 90 449 232 c 4
 449 351 430 352 314 352 c 0
 308 352 l 7
 168 352 78 352 78 562 c 4
EndSplineSet
Validated: 1
EndChar

StartChar: U
Encoding: 85 85 84
Width: 617
Flags: W
HStem: 0 90<229.572 431.289> 730 20G<78 168 449 539>
VStem: 78 90<153.446 750> 449 90<109.673 750>
LayerCount: 2
Fore
SplineSet
449 750 m 1
 539 750 l 1
 539 680 539 317 539 230 c 0
 539 0 538 0 308 0 c 3
 78 0 78 230 78 230 c 0
 78 750 l 1
 168 750 l 1
 168 230 l 0
 168 230 168 90 308 90 c 3
 448 90 449 90 449 230 c 3
 449 312 449 680 449 750 c 1
EndSplineSet
Validated: 1
EndChar

StartChar: V
Encoding: 86 86 85
Width: 617
Flags: MW
HStem: 0 21G<255.147 360.88> 730 20G<78 175.858 441.106 539>
DStem2: 171 750 78 750 0.239488 -0.970899<0 580.397> 308 186 356 0 0.240708 0.970598<0 580.635>
LayerCount: 2
Fore
SplineSet
356 0 m 1
 260 0 l 1
 78 750 l 1
 171 750 l 1
 308 186 l 1
 446 750 l 1
 539 750 l 1
 356 0 l 1
EndSplineSet
Validated: 1
EndChar

StartChar: W
Encoding: 87 87 86
Width: 617
Flags: MW
HStem: 0 21G<133.48 231.077 386.799 483.52> 480 20G<256.956 359.088> 730 20G<78 170.513 446.494 539>
DStem2: 169 750 78 750 0.0757815 -0.997124<0 477.359> 205 274 308 323 0.248002 0.968759<0 73.0135> 412 272 308 323 0.251634 -0.967823<-75.5289 0> 412 272 482 0 0.0757815 0.997124<0 479.354>
LayerCount: 2
Fore
SplineSet
205 274 m 1
 262 500 l 1
 354 500 l 1
 412 272 l 1
 448 750 l 1
 539 750 l 1
 482 0 l 1
 392 0 l 1
 308 323 l 1
 226 0 l 1
 135 0 l 1
 78 750 l 1
 169 750 l 1
 205 274 l 1
EndSplineSet
Validated: 1
EndChar

StartChar: X
Encoding: 88 88 87
Width: 617
VWidth: 0
Flags: MW
HStem: 0 21G<78 187.559 430.294 539> 730 20G<78 187.559 430.294 539>
DStem2: 178 750 78 750 0.434682 -0.900584<0 301.468 486.988 789.325> 78 0 178 0 0.434682 0.900584<43.4682 344.936 530.456 832.793>
LayerCount: 2
Fore
SplineSet
440 750 m 1
 539 750 l 1
 358 375 l 1
 539 0 l 1
 506 0 473 0 440 0 c 1
 308 272 l 1
 178 0 l 1
 145 0 111 0 78 0 c 1
 259 375 l 1
 78 750 l 1
 178 750 l 1
 308 478 l 1
 440 750 l 1
EndSplineSet
Validated: 1
EndChar

StartChar: Y
Encoding: 89 89 88
Width: 617
Flags: MW
HStem: 0 21G<264 354> 730 20G<78 187.848 428.152 539>
VStem: 264 90<0 375>
DStem2: 178 750 78 750 0.444345 -0.895856<0 294.271> 308 486 354 375 0.442424 0.896806<0 294.272>
LayerCount: 2
Fore
SplineSet
264 375 m 1
 78 750 l 1
 178 750 l 1
 308 486 l 1
 438 750 l 1
 539 750 l 1
 354 375 l 1
 354 0 l 1
 264 0 l 1
 264 375 l 1
EndSplineSet
Validated: 1
EndChar

StartChar: Z
Encoding: 90 90 89
Width: 617
VWidth: 0
Flags: MW
HStem: 0 90<220 539> 660 90<78 396>
DStem2: 78 0 220 90 0.435169 0.900349<142.825 732.614>
LayerCount: 2
Fore
SplineSet
539 0 m 1
 385 0 232 0 78 0 c 1
 184 220 290 440 396 660 c 1
 78 660 l 1
 78 750 l 1
 232 750 385 750 539 750 c 1
 433 530 326 310 220 90 c 1
 539 90 l 1
 539 0 l 1
EndSplineSet
Validated: 1
EndChar

StartChar: backslash
Encoding: 92 92 90
Width: 617
VWidth: 0
Flags: MW
HStem: 0 21G<396.347 500> 730 20G<117 220.653>
DStem2: 213 750 117 750 0.357393 -0.933954<0 768.728>
LayerCount: 2
Fore
SplineSet
404 0 m 1
 117 750 l 1
 213 750 l 1
 500 0 l 1
 467 0 437 0 404 0 c 1
EndSplineSet
Validated: 1
EndChar

StartChar: asciicircum
Encoding: 94 94 91
Width: 617
Flags: MW
HStem: 730 20G<256.16 361.787>
DStem2: 117 375 214 375 0.364961 0.931023<35.4012 295.015> 354 750 308 617 0.362806 -0.931865<107.249 367.59>
LayerCount: 2
Fore
SplineSet
354 750 m 1
 500 375 l 1
 404 375 l 1
 308 617 l 1
 214 375 l 1
 117 375 l 1
 264 750 l 1
 354 750 l 1
EndSplineSet
Validated: 1
EndChar

StartChar: grave
Encoding: 96 96 92
Width: 617
Flags: W
HStem: 545 205
VStem: 135 218
LayerCount: 2
Fore
SplineSet
135 715 m 0
 135 733 150 750 168 750 c 2
 169 750 l 2
 199 750 231 719 231 719 c 1
 289 665 351 611 353 566 c 0
 353 554 347 545 335 545 c 2
 333 545 l 2
 289 545 227 600 169 654 c 1
 169 654 136 685 135 715 c 0
EndSplineSet
Validated: 1
EndChar

StartChar: bar
Encoding: 124 124 93
Width: 617
VWidth: 0
Flags: W
HStem: 730 20G<264 354>
VStem: 264 90<-90 750>
LayerCount: 2
Fore
SplineSet
264 750 m 25
 354 750 l 25
 354 -90 l 25
 264 -90 l 25
 264 750 l 25
EndSplineSet
Validated: 1
EndChar

StartChar: asciitilde
Encoding: 126 126 94
Width: 617
Flags: W
HStem: 240 90<366.029 442.54> 330 90<175.269 251.808>
VStem: 78 90<283 323.364> 449 90<337.823 375>
LayerCount: 2
Fore
SplineSet
78 283 m 5x70
 78 283 78 420 216 420 c 7x70
 354 420 354 330 402 330 c 7
 449 330 449 373 449 375 c 5
 539 375 l 5
 539 368 538 240 402 240 c 7xb0
 264 240 264 330 215 330 c 7
 168 330 168 283 168 283 c 5
 78 283 l 5x70
EndSplineSet
Validated: 1
EndChar

StartChar: exclamdown
Encoding: 161 161 96
Width: 617
Flags: W
HStem: 410 180<254.809 361.574>
VStem: 219 179<446.426 553.574> 264 90<-250 250>
LayerCount: 2
Fore
SplineSet
308 590 m 0xc0
 353 590 398 545 398 500 c 0
 398 455 353 410 308 410 c 0
 263 410 219 455 219 500 c 0
 219 545 263 590 308 590 c 0xc0
264 250 m 25xa0
 354 250 l 25
 354 -250 l 25
 264 -250 l 25
 264 250 l 25xa0
EndSplineSet
Validated: 1
EndChar

StartChar: cent
Encoding: 162 162 97
Width: 617
Flags: W
HStem: 0 21G<264 354> 125 90<233.07 264 354 422.754> 533 90<233.07 264 354 422.754> 730 20G<264 354>
VStem: 78 90<282.821 465.179> 264 90<0 125 220 528 623 750> 449 90<238.531 284 464 509.469>
LayerCount: 2
Fore
SplineSet
264 750 m 1
 354 750 l 1
 354 623 l 1
 439 620 539 599 539 464 c 1
 449 464 l 1
 449 515 399 529 354 533 c 1
 354 215 l 1
 399 219 449 233 449 284 c 1
 539 284 l 1
 539 149 439 128 354 125 c 1
 354 0 l 1
 264 0 l 1
 264 127 l 1
 150 145 78 232 78 374 c 0
 78 516 150 603 264 621 c 1
 264 750 l 1
264 528 m 1
 202 508 168 447 168 374 c 0
 168 301 202 240 264 220 c 1
 264 528 l 1
EndSplineSet
Validated: 1
EndChar

StartChar: sterling
Encoding: 163 163 98
Width: 617
Flags: W
HStem: 0 90<192 539> 285 90<192 402> 660 90<236.434 447.548>
VStem: 102 90<90 285 375 619.06>
LayerCount: 2
Fore
SplineSet
102 90 m 1
 102 242 102 393 102 545 c 0
 102 588 117 750 333 750 c 0
 408 750 477 721 539 690 c 1
 499 615 l 1
 454 637 413 660 333 660 c 0
 258 660 192 641 192 545 c 0
 192 489 192 431 192 375 c 1
 402 375 l 1
 402 285 l 1
 192 285 l 1
 192 90 l 1
 539 90 l 1
 539 0 l 1
 78 0 l 1
 102 90 l 1
EndSplineSet
Validated: 1
EndChar

StartChar: Euro
Encoding: 8364 8364 99
Width: 617
Flags: W
HStem: 0 90<240.447 420.641> 250 90<176 402> 410 90<176 402> 660 90<240.447 420.641>
VStem: 78 90<340 410> 449 90<119.087 160 590 630.913>
LayerCount: 2
Fore
SplineSet
539 160 m 5
 539 0 398 0 308 0 c 4
 168 0 78 90 78 375 c 4
 78 660 168 750 308 750 c 4
 398 750 539 750 539 590 c 5
 449 590 l 5
 449 660 356 660 310 660 c 6
 308 660 l 6
 238 660 194 618 176 500 c 5
 402 500 l 5
 402 410 l 5
 168 410 l 5
 168 340 l 5
 402 340 l 5
 402 250 l 5
 176 250 l 5
 194 132 238 90 308 90 c 6
 310 90 l 6
 356 90 449 90 449 160 c 5
 539 160 l 5
EndSplineSet
Validated: 1
EndChar

StartChar: yen
Encoding: 165 165 100
Width: 617
Flags: MW
HStem: 0 21G<264 354> 160 90<117 264 354 500> 285 90<117 264 354 500> 730 20G<78 187.848 428.152 539>
VStem: 264 90<0 160 250 285>
DStem2: 178 750 78 750 0.444345 -0.895856<0 294.271> 308 486 354 375 0.442424 0.896806<0 294.272>
LayerCount: 2
Fore
SplineSet
354 285 m 1
 354 250 l 1
 500 250 l 1
 500 160 l 1
 354 160 l 1
 354 0 l 1
 264 0 l 1
 264 160 l 1
 117 160 l 1
 117 250 l 1
 264 250 l 1
 264 285 l 1
 117 285 l 1
 117 375 l 1
 264 375 l 1
 78 750 l 1
 178 750 l 1
 308 486 l 1
 438 750 l 1
 539 750 l 1
 354 375 l 1
 500 375 l 1
 500 285 l 1
 354 285 l 1
EndSplineSet
Validated: 1
EndChar

StartChar: section
Encoding: 167 167 102
Width: 617
Flags: W
HStem: -250 90<187.751 423.613> 58 88<182.974 423.588> 352 90<192.625 433.299> 660 90<192.619 428.502>
VStem: 78 90<-140.827 -70 161.289 327.622 460.558 636.573> 449 90<-136.573 39.3732 170.752 334.833 570 640.827>
LayerCount: 2
Fore
SplineSet
308 352 m 0
 218 352 168 352 168 250 c 0
 168 146 187 146 308 146 c 2
 312 146 l 2
 400 146 449 148 449 250 c 0
 449 352 429 352 308 352 c 0
484 115 m 1
 519 87 539 36 539 -62 c 0
 539 -250 448 -250 308 -250 c 0
 168 -250 78 -216 78 -70 c 1
 168 -70 l 1
 168 -154 206 -160 274 -160 c 2
 308 -160 l 2
 398 -160 449 -160 449 -62 c 0
 449 58 429 58 308 58 c 0
 168 58 78 58 78 250 c 0
 78 325 91 372 117 400 c 1
 91 430 78 479 78 562 c 0
 78 750 168 750 308 750 c 0
 448 750 539 716 539 570 c 1
 449 570 l 1
 449 654 412 660 344 660 c 2
 308 660 l 2
 218 660 168 660 168 562 c 0
 168 442 187 442 308 442 c 0
 448 442 539 442 539 250 c 0
 539 186 516 143 484 115 c 1
EndSplineSet
Validated: 1
EndChar

StartChar: copyright
Encoding: 169 169 104
Width: 617
Flags: W
HStem: 0 84<205.242 410.872> 142 59<245.735 382.92> 416 60<245.735 382.92> 534 83<205.242 410.872>
VStem: 0 84<211.704 405.156> 142 73<228.699 387.767> 392 73<210.698 249 369 404.031> 534 83<217.256 405.156>
LayerCount: 2
Fore
SplineSet
617 308 m 0
 617 308 616 0 308 0 c 0
 0 0 0 308 0 308 c 0
 0 308 0 617 308 617 c 0
 616 617 617 308 617 308 c 0
308 534 m 0
 84 534 84 308 84 308 c 0
 84 308 84 84 308 84 c 0
 532 84 534 308 534 308 c 0
 534 308 532 534 308 534 c 0
465 249 m 1
 465 143 371 142 311 142 c 0
 308 142 l 0
 193 142 142 200 142 308 c 0
 142 416 193 476 308 476 c 0
 311 476 l 0
 371 476 465 475 465 369 c 1
 392 369 l 1
 392 416 345 416 308 416 c 0
 235 416 215 368 215 308 c 0
 215 248 235 201 308 201 c 0
 345 201 392 202 392 249 c 1
 465 249 l 1
EndSplineSet
Validated: 1
EndChar

StartChar: ordfeminine
Encoding: 170 170 105
Width: 617
Flags: W
HStem: 205 90<117 500> 375 67<199.959 426> 530 66<203.846 426> 682 68<199.593 397.728>
VStem: 117 75<453.521 517.418> 426 74<442 530 596 654.852>
LayerCount: 2
Fore
SplineSet
117 295 m 0
 500 295 l 0
 500 205 l 0
 117 205 l 0
 117 295 l 0
192 486 m 0
 192 443 248 442 308 442 c 3
 343 442 368 442 406 442 c 2
 426 442 l 9
 426 530 l 17
 408 530 l 18
 378 530 343 530 308 530 c 0
 259 530 192 529 192 486 c 0
171 648 m 1
 138 705 l 1
 189 729 246 750 308 750 c 3
 486 750 500 628 500 596 c 0
 500 510 500 461 500 375 c 17
 407 375 l 2
 381 375 341 375 308 375 c 3
 191 375 117 402 117 486 c 3
 117 580 191 596 308 596 c 3
 332 596 371 596 411 596 c 2
 426 596 l 1
 426 668 370 682 308 682 c 1
 242 682 208 664 171 648 c 1
EndSplineSet
Validated: 1
EndChar

StartChar: guillemotleft
Encoding: 171 171 106
Width: 617
Flags: MW
LayerCount: 2
Fore
SplineSet
308 285 m 1
 308 375 l 1
 539 580 l 1
 539 478 l 1
 416 330 l 1
 539 182 l 1
 539 80 l 1
 308 285 l 1
78 285 m 1
 78 375 l 1
 308 580 l 1
 308 478 l 1
 186 330 l 1
 308 182 l 1
 308 80 l 1
 78 285 l 1
EndSplineSet
Validated: 1
EndChar

StartChar: logicalnot
Encoding: 172 172 107
Width: 617
Flags: W
HStem: 285 90<78 449>
VStem: 449 90<125 285>
LayerCount: 2
Fore
SplineSet
78 375 m 5
 539 375 l 5
 539 292 539 208 539 125 c 5
 449 125 l 5
 449 285 l 5
 78 285 l 5
 78 375 l 5
EndSplineSet
Validated: 1
EndChar

StartChar: uni00AD
Encoding: 173 173 108
Width: 617
Flags: W
HStem: 285 90<117 500>
LayerCount: 2
Fore
SplineSet
117 375 m 4
 500 375 l 4
 500 285 l 4
 117 285 l 4
 117 375 l 4
EndSplineSet
Validated: 1
EndChar

StartChar: registered
Encoding: 174 174 109
Width: 617
Flags: W
HStem: 0 84<205.242 410.872> 281 55<220 292 350 383.485> 428 48<220 382.412> 534 83<205.242 410.872>
VStem: 0 84<211.704 405.156> 166 54<142 281 336 428> 396 55<352.386 411.742> 534 83<217.256 405.156>
LayerCount: 2
Fore
SplineSet
166 476 m 1
 215 476 259 476 308 476 c 0
 450 476 451 382 451 382 c 1
 451 320 368 284 350 284 c 1
 451 142 l 1
 431 142 410 142 390 142 c 1
 292 281 l 1
 220 281 l 1
 220 142 l 1
 166 142 l 1
 166 476 l 1
220 336 m 1
 308 336 l 2
 396 336 396 382 396 382 c 1
 396 382 396 428 308 428 c 2
 220 428 l 1
 220 336 l 1
617 308 m 0
 617 308 616 0 308 0 c 0
 0 0 0 308 0 308 c 0
 0 308 0 617 308 617 c 0
 616 617 617 308 617 308 c 0
308 534 m 0
 84 534 84 308 84 308 c 0
 84 308 84 84 308 84 c 0
 532 84 534 308 534 308 c 0
 534 308 532 534 308 534 c 0
EndSplineSet
Validated: 1
EndChar

StartChar: macron
Encoding: 175 175 110
Width: 617
Flags: W
HStem: 528 89<117 502>
LayerCount: 2
Fore
SplineSet
117 617 m 0
 502 617 l 0
 502 528 l 0
 117 528 l 0
 117 617 l 0
EndSplineSet
Validated: 1
EndChar

StartChar: degree
Encoding: 176 176 111
Width: 617
Flags: W
HStem: 375 83<245.809 370.508> 667 83<247.566 368.75>
VStem: 117 90<494.073 630.371> 410 90<494.073 627.057>
LayerCount: 2
Fore
SplineSet
500 562 m 4
 500 376 312 375 308 375 c 4
 304 375 117 376 117 562 c 4
 117 750 308 750 308 750 c 5
 308 750 500 750 500 562 c 4
308 667 m 5
 308 667 207 666 207 562 c 4
 207 458 308 458 308 458 c 5
 308 458 410 458 410 562 c 7
 410 666 308 667 308 667 c 5
EndSplineSet
Validated: 1
EndChar

StartChar: plusminus
Encoding: 177 177 112
Width: 617
Flags: W
HStem: 150 90<78 539> 468 90<78 264 354 539>
VStem: 264 90<330 468 558 696>
LayerCount: 2
Fore
SplineSet
78 240 m 0
 539 240 l 0
 539 150 l 0
 78 150 l 0
 78 240 l 0
539 558 m 1
 539 468 l 1
 354 468 l 1
 354 330 l 1
 264 330 l 1
 264 468 l 1
 78 468 l 1
 78 558 l 1
 264 558 l 1
 264 696 l 1
 354 696 l 1
 354 558 l 1
 539 558 l 1
EndSplineSet
Validated: 1
EndChar

StartChar: uni00B2
Encoding: 178 178 113
Width: 617
VWidth: 0
Flags: W
HStem: 375 63<301 449> 676 74<246.095 370.308>
VStem: 168 74<625 669.844> 375 74<583.909 670.462>
LayerCount: 2
Fore
SplineSet
301 438 m 1
 449 438 l 1
 449 375 l 1
 355 375 198 375 168 375 c 1
 168 383 168 422 168 438 c 1
 168 438 375 563 375 625 c 0
 375 661 374 676 308 676 c 0
 242 676 242 660 242 625 c 1
 168 625 l 1
 168 685 168 750 308 750 c 0
 448 750 449 679 449 625 c 0
 449 548 301 438 301 438 c 1
EndSplineSet
Validated: 1
EndChar

StartChar: uni00B3
Encoding: 179 179 114
Width: 617
Flags: W
HStem: 375 74<243.368 373.189> 543 63<308 358.757> 676 74<257.107 361.555>
VStem: 168 74<451.123 486> 182 74<650 674.07> 362 74<609.982 674.576> 375 74<451.78 536.412>
LayerCount: 2
Fore
SplineSet
449 486 m 0xe2
 449 407 394 375 308 375 c 0
 222 375 168 412 168 486 c 1
 242 486 l 1
 242 449 254 449 308 449 c 0
 362 449 375 449 375 486 c 0xf2
 375 531 362 543 308 543 c 1
 308 606 l 1
 351 606 362 615 362 650 c 0
 362 676 351 676 308 676 c 0
 265 676 256 676 256 650 c 1
 182 650 l 1
 182 710 222 750 308 750 c 0
 394 750 436 710 436 650 c 0xec
 436 608 410 590 394 574 c 1
 410 558 449 544 449 486 c 0xe2
EndSplineSet
Validated: 1
EndChar

StartChar: uni00B5
Encoding: 181 181 116
Width: 617
Flags: W
HStem: 0 90<227.094 431.289> 480 20G<78 168 449 539>
VStem: 78 90<-249 41 153.446 500> 449 90<109.673 500>
LayerCount: 2
Fore
SplineSet
449 500 m 1
 539 500 l 1
 539 430 539 317 539 230 c 0
 539 0 538 0 308 0 c 0
 246 0 201 17 168 41 c 1
 168 -249 l 1
 78 -249 l 1
 78 1 78 250 78 500 c 1
 168 500 l 1
 168 230 l 1
 168 230 168 90 308 90 c 0
 448 90 449 90 449 230 c 0
 449 312 449 430 449 500 c 1
EndSplineSet
Validated: 1
EndChar

StartChar: paragraph
Encoding: 182 182 117
Width: 617
Flags: W
HStem: 0 21G<308 392 455 539> 660 90<392 455>
VStem: 78 314<439.92 640.08> 308 84<0 330> 455 84<0 660>
LayerCount: 2
Fore
SplineSet
539 750 m 1xe8
 539 0 l 1
 455 0 l 1
 455 660 l 1
 392 660 l 1
 392 0 l 1
 308 0 l 1
 308 330 l 1xd8
 264 330 l 2
 78 330 78 540 78 540 c 1
 78 540 78 750 264 750 c 0
 341 750 462 750 539 750 c 1xe8
EndSplineSet
Validated: 1
EndChar

StartChar: periodcentered
Encoding: 183 183 118
Width: 617
Flags: W
HStem: 285 180<254.809 361.574>
VStem: 219 179<321.426 428.574>
LayerCount: 2
Fore
SplineSet
308 465 m 0
 353 465 398 420 398 375 c 0
 398 330 353 285 308 285 c 0
 263 285 219 330 219 375 c 0
 219 420 263 465 308 465 c 0
EndSplineSet
Validated: 1
EndChar

StartChar: uni00B9
Encoding: 185 185 120
Width: 617
VWidth: 0
Flags: W
HStem: 730 20G<305.386 410>
VStem: 336 74<375 663>
LayerCount: 2
Fore
SplineSet
260 574 m 1
 168 574 l 17
 323 750 l 1
 345 750 388 750 410 750 c 1
 410 375 l 1
 336 375 l 1
 336 663 l 1
 260 574 l 1
EndSplineSet
Validated: 1
EndChar

StartChar: ordmasculine
Encoding: 186 186 121
Width: 617
VWidth: 0
Flags: W
HStem: 205 90<117 500> 375 83<245.809 370.508> 667 83<247.566 368.75>
VStem: 117 90<494.073 630.371> 410 90<494.073 627.057>
LayerCount: 2
Fore
SplineSet
117 295 m 5
 500 295 l 5
 500 205 l 5
 117 205 l 5
 117 295 l 5
500 562 m 4
 500 376 312 375 308 375 c 4
 304 375 117 376 117 562 c 4
 117 750 308 750 308 750 c 5
 308 750 500 750 500 562 c 4
308 667 m 5
 308 667 207 666 207 562 c 4
 207 458 308 458 308 458 c 5
 308 458 410 458 410 562 c 7
 410 666 308 667 308 667 c 5
EndSplineSet
Validated: 1
EndChar

StartChar: guillemotright
Encoding: 187 187 122
Width: 617
Flags: W
LayerCount: 2
Fore
SplineSet
308 285 m 5
 78 80 l 5
 78 182 l 5
 201 330 l 5
 78 478 l 5
 78 580 l 5
 308 375 l 5
 308 285 l 5
539 285 m 5
 308 80 l 5
 308 182 l 5
 432 330 l 5
 308 478 l 5
 308 580 l 5
 539 375 l 5
 539 285 l 5
EndSplineSet
Validated: 1
EndChar

StartChar: OE
Encoding: 338 338 123
Width: 617
Flags: W
HStem: 0 90<203.409 275.711 398 539> 330 90<398 494> 660 90<203.409 272.105 398 539>
VStem: 78 90<146.795 603.205> 308 90<136.613 330 420 604.931>
CounterMasks: 1 e0
LayerCount: 2
Fore
SplineSet
308 750 m 1
 398 750 l 1
 539 750 l 1
 539 660 l 1
 398 660 l 1
 398 612 l 1
 398 420 l 1
 494 420 l 1
 494 330 l 1
 398 330 l 1
 398 90 l 1
 539 90 l 1
 539 0 l 1
 398 0 l 1
 308 0 l 1
 308 12 l 1
 284 0 260 0 238 0 c 0
 168 0 78 0 78 375 c 0
 78 750 168 750 238 750 c 0
 260 750 296 750 308 738 c 1
 308 750 l 1
238 660 m 0
 218 660 168 660 168 375 c 0
 168 90 218 90 238 90 c 0
 264 90 308 90 308 375 c 0
 308 660 256 660 238 660 c 0
EndSplineSet
Validated: 1
EndChar

StartChar: oe
Encoding: 339 339 124
Width: 617
Flags: W
HStem: 0 74<161.631 254.73 371.188 539> 207 86<354 465> 414 86<165.122 256.688 356.553 457.303>
VStem: 78 74<80.9412 406.791> 264 90<92.1538 207 293 410.167> 465 74<293 407.173>
LayerCount: 2
Fore
SplineSet
354 293 m 1
 465 293 l 1
 465 408 464 414 404 414 c 0
 358 414 354 408 354 354 c 0
 354 342 354 328 354 312 c 1
 354 293 l 1
210 414 m 0
 162 414 152 410 152 250 c 0
 152 90 152 74 210 74 c 0
 264 74 264 90 264 250 c 0
 264 410 264 414 210 414 c 0
354 207 m 1
 354 202 l 0
 354 94 354 74 476 74 c 2
 539 74 l 1
 539 0 l 1
 417 0 352 11 320 20 c 1
 302 0 270 0 210 0 c 0
 78 0 78 0 78 250 c 0
 78 500 78 500 210 500 c 0
 262 500 294 484 312 484 c 1
 332 496 357 500 404 500 c 0
 534 500 539 500 539 250 c 2
 539 207 l 1
 354 207 l 1
EndSplineSet
Validated: 1
EndChar

StartChar: questiondown
Encoding: 191 191 126
Width: 617
Flags: W
HStem: -248 90<192.352 424.083> 37 89<191.162 264> 412 180<254.809 361.574>
VStem: 78 90<-134.573 14.0583> 219 179<448.426 555.574> 264 90<126 252> 449 90<-134.074 -60>
LayerCount: 2
Fore
SplineSet
308 412 m 0xfa
 263 412 219 457 219 502 c 0
 219 547 263 592 308 592 c 0
 353 592 398 547 398 502 c 0
 398 457 353 412 308 412 c 0xfa
264 126 m 1xf6
 264 252 l 1
 354 252 l 1
 354 37 l 1
 308 37 l 2
 303 37 l 0
 216 37 168 36 168 -60 c 0
 168 -158 218 -158 308 -158 c 0
 398 -158 449 -158 449 -60 c 1
 539 -60 l 1
 539 -248 448 -248 308 -248 c 0
 168 -248 78 -248 78 -60 c 0
 78 107 150 124 264 126 c 1xf6
EndSplineSet
Validated: 1
EndChar

StartChar: AE
Encoding: 198 198 133
Width: 617
Flags: W
HStem: 0 90<398 539> 205 90<242 308> 330 90<398 494> 660 90<398 539>
VStem: 308 90<90 205 295 330 420 564>
LayerCount: 2
Fore
SplineSet
220 205 m 1
 170 0 l 1
 78 0 l 1
 260 750 l 1
 539 750 l 1
 539 660 l 1
 398 660 l 1
 398 420 l 1
 494 420 l 1
 494 330 l 1
 398 330 l 1
 398 90 l 1
 539 90 l 1
 539 0 l 1
 308 0 l 1
 308 205 l 1
 220 205 l 1
308 295 m 1
 308 564 l 1
 242 295 l 1
 308 295 l 1
EndSplineSet
Validated: 1
EndChar

StartChar: Ccedilla
Encoding: 199 199 134
Width: 617
Flags: W
HStem: -250 62<198 367.844> -102 63<354 371.999> 1 89<238.682 264 354 422.754> 660 90<240.447 420.641>
VStem: 78 90<189.085 561.23> 264 90<-39 1> 376 73<-179.426 -108.935> 449 90<114.531 160 590 630.913>
LayerCount: 2
Fore
SplineSet
308 90 m 2xfd
 310 90 l 2
 356 90 449 90 449 160 c 1
 539 160 l 1xfd
 539 25 439 4 354 1 c 1
 354 -39 l 1
 356 -39 l 2
 357 -39 l 0
 379 -39 449 -40 449 -144 c 0
 449 -250 376 -250 308 -250 c 2
 198 -250 l 1
 198 -188 l 1
 308 -188 l 2
 351 -188 376 -176 376 -144 c 0xfe
 376 -112 356 -102 308 -102 c 2
 264 -102 l 1
 264 4 l 1
 150 22 78 121 78 375 c 0
 78 660 168 750 308 750 c 0
 398 750 539 750 539 590 c 1
 449 590 l 1
 449 660 356 660 310 660 c 2
 308 660 l 2
 218 660 168 590 168 375 c 0
 168 160 218 90 308 90 c 2xfd
EndSplineSet
Validated: 1
EndChar

StartChar: Eth
Encoding: 208 208 143
Width: 617
VWidth: 975
Flags: W
HStem: 0 90<168 363.971> 330 90<168 354> 660 90<168 363.971>
VStem: 78 90<90 330 420 660> 449 90<222.473 527.527>
CounterMasks: 1 e0
LayerCount: 2
Fore
SplineSet
168 90 m 1
 215 90 261 90 308 90 c 0
 448 90 449 375 449 375 c 1
 449 375 448 660 308 660 c 2
 168 660 l 1
 168 420 l 1
 354 420 l 1
 354 330 l 1
 168 330 l 1
 168 90 l 1
78 750 m 1
 308 750 l 2
 538 750 539 375 539 375 c 1
 539 375 538 0 308 0 c 2
 78 0 l 1
 78 750 l 1
EndSplineSet
Validated: 1
EndChar

StartChar: multiply
Encoding: 215 215 150
Width: 617
Flags: W
LayerCount: 2
Fore
SplineSet
372 455 m 1
 516 308 l 1
 451 245 l 1
 310 392 l 1
 166 245 l 1
 102 308 l 1
 246 455 l 1
 102 602 l 1
 165 665 l 1
 310 518 l 1
 452 665 l 1
 516 602 l 1
 372 455 l 1
EndSplineSet
Validated: 1
EndChar

StartChar: Oslash
Encoding: 216 216 151
Width: 617
Flags: W
HStem: 0 90<249.722 399.002> 660 90<217.26 367.545>
VStem: 78 90<201.624 591.108> 449 90<158.892 551.502>
LayerCount: 2
Fore
SplineSet
213 0 m 1
 117 0 l 1
 152 88 l 1
 110 146 78 239 78 375 c 0
 78 750 168 750 308 750 c 0
 336 750 366 742 396 726 c 1
 404 750 l 1
 500 750 l 1
 466 661 l 1
 509 603 539 511 539 375 c 0
 539 0 448 0 308 0 c 0
 280 0 252 8 222 24 c 1
 213 0 l 1
308 660 m 0
 218 660 168 660 168 375 c 0
 168 281 174 217 184 175 c 1
 368 656 l 1
 350 660 330 660 308 660 c 0
432 575 m 1
 249 94 l 1
 267 90 286 90 308 90 c 0
 398 90 449 90 449 375 c 0
 449 469 442 533 432 575 c 1
EndSplineSet
Validated: 1
EndChar

StartChar: Thorn
Encoding: 222 222 157
Width: 617
VWidth: 975
Flags: W
HStem: 0 21G<78 168> 251 90<168 392.08> 570 90<168 392.08> 730 20G<78 168>
VStem: 78 90<0 251 341 570 660 750> 449 90<394.897 515.398>
LayerCount: 2
Fore
SplineSet
539 455 m 1
 539 455 538 251 308 251 c 2
 168 251 l 1
 168 0 l 1
 78 0 l 1
 78 333 78 417 78 750 c 1
 168 750 l 1
 168 660 l 1
 308 660 l 2
 538 660 539 455 539 455 c 1
168 570 m 1
 168 341 l 1
 308 341 l 2
 448 341 449 455 449 455 c 1
 449 455 448 570 308 570 c 0
 261 570 215 570 168 570 c 1
EndSplineSet
Validated: 1
EndChar

StartChar: germandbls
Encoding: 223 223 158
Width: 617
Flags: W
HStem: 0 90<308 397.573> 354 90<308 383.573> 660 90<231.251 384.953>
VStem: 100 90<0 619.025> 427 89<485.039 619.325> 449 90<141.178 302.784>
LayerCount: 2
Fore
SplineSet
308 90 m 1xf4
 398 90 449 132 449 222 c 0xf4
 449 312 398 354 308 354 c 1
 308 444 l 1
 378 444 427 482 427 552 c 0
 427 622 378 660 308 660 c 0
 238 660 190 622 190 552 c 2
 190 0 l 1
 100 0 l 1
 100 552 l 2
 100 672 168 750 308 750 c 0
 448 750 516 672 516 552 c 0xf8
 516 468 475 428 449 398 c 1
 475 368 539 340 539 222 c 0
 539 102 448 0 308 0 c 1
 308 90 l 1xf4
EndSplineSet
Validated: 1
EndChar

StartChar: ae
Encoding: 230 230 165
Width: 617
Flags: W
HStem: 0 74<161.51 264 371.111 539> 207 86<161.51 264 354 465> 414 86<138.136 260.398 356.597 457.303>
VStem: 78 74<81.5516 197.876> 264 90<91.9721 207 293 410.875> 465 74<293 407.173>
LayerCount: 2
Fore
SplineSet
264 293 m 5
 264 336 l 5
 264 340 l 6
 264 400 263 414 215 414 c 4
 174 414 152 405 114 375 c 5
 78 438 l 5
 114 468 140 500 215 500 c 4
 252 500 273 488 293 470 c 5
 309 500 338 500 404 500 c 4
 534 500 539 500 539 250 c 6
 539 207 l 5
 354 207 l 5
 354 202 l 0
 354 92 355 74 476 74 c 6
 539 74 l 5
 539 0 l 5
 215 0 l 6
 105 0 78 28 78 140 c 4
 78 266 105 293 215 293 c 6
 264 293 l 5
152 140 m 4
 152 82 174 74 215 74 c 6
 264 74 l 5
 264 207 l 5
 215 207 l 6
 174 207 152 198 152 140 c 4
354 293 m 5
 465 293 l 5
 465 408 464 414 404 414 c 4
 358 414 354 408 354 354 c 6
 354 293 l 5
EndSplineSet
Validated: 1
EndChar

StartChar: ccedilla
Encoding: 231 231 166
Width: 617
Flags: W
HStem: -250 62<198 367.844> -102 63<354 371.999> 1 89<233.07 264 354 422.754> 410 90<234.787 420.641>
VStem: 78 90<159.612 339.422> 264 90<-39 1> 376 73<-179.426 -108.935> 449 90<114.531 160 340 380.913>
LayerCount: 2
Fore
SplineSet
308 90 m 2xfd
 310 90 l 2
 356 90 449 90 449 160 c 1
 539 160 l 1xfd
 539 25 439 4 354 1 c 1
 354 -39 l 1
 356 -39 l 2
 357 -39 l 0
 379 -39 449 -40 449 -144 c 0
 449 -250 376 -250 308 -250 c 2
 198 -250 l 1
 198 -188 l 1
 308 -188 l 2
 351 -188 376 -176 376 -144 c 0xfe
 376 -112 356 -102 308 -102 c 2
 264 -102 l 5
 264 3 l 1
 150 21 78 108 78 250 c 0
 78 410 168 500 308 500 c 0
 398 500 539 500 539 340 c 1
 449 340 l 1
 449 410 356 410 310 410 c 2
 308 410 l 2
 218 410 168 340 168 250 c 0
 168 160 218 90 308 90 c 2xfd
EndSplineSet
Validated: 1
EndChar

StartChar: eth
Encoding: 240 240 175
Width: 617
Flags: W
HStem: 0 90<223.937 392.283> 375 90<223.937 392.51> 730 20G<250.25 266.5 427.593 474.688>
VStem: 78 90<147.097 317.122> 449 90<147.52 316.797 414 497.027>
LayerCount: 2
Fore
SplineSet
449 414 m 1
 449 502 406 565 358 608 c 1
 220 528 l 1
 220 617 l 1
 291 656 l 1
 252 678 220 686 220 686 c 1
 264 750 l 1
 269 750 313 733 364 696 c 1
 465 750 l 1
 496 686 l 1
 424 644 l 1
 484 584 539 495 539 375 c 0
 539 321 539 268 539 232 c 0
 539 104 448 0 308 0 c 0
 168 0 78 90 78 232 c 0
 78 374 168 465 308 465 c 0
 364 465 425 438 449 414 c 1
308 90 m 0
 398 90 449 142 449 232 c 0
 449 322 398 375 308 375 c 0
 218 375 168 322 168 232 c 0
 168 142 218 90 308 90 c 0
EndSplineSet
Validated: 1
EndChar

StartChar: divide
Encoding: 247 247 182
Width: 617
Flags: W
HStem: 220 123<255.099 361.562> 410 90<78 539> 566 124<254.438 360.901>
VStem: 247 123<228.099 334.562 574.438 681.562>
LayerCount: 2
Fore
SplineSet
308 343 m 0
 353 343 370 326 370 281 c 0
 370 236 353 220 308 220 c 0
 263 220 247 236 247 281 c 0
 247 326 263 343 308 343 c 0
308 690 m 0
 353 690 369 673 369 628 c 0
 369 583 353 566 308 566 c 0
 263 566 246 583 246 628 c 0
 246 673 263 690 308 690 c 0
78 500 m 0
 539 500 l 0
 539 410 l 0
 78 410 l 0
 78 500 l 0
EndSplineSet
Validated: 1
EndChar

StartChar: oslash
Encoding: 248 248 183
Width: 617
Flags: W
HStem: 0 90<295 413.563> 410 90<202.63 322>
VStem: 78 90<126.942 368.422> 449 90<131.578 373.058>
LayerCount: 2
Fore
SplineSet
308 410 m 2
 218 410 168 410 168 250 c 0
 168 168 180 128 206 108 c 1
 322 410 l 1
 308 410 l 2
539 250 m 0
 539 0 448 0 308 0 c 2
 260 0 l 1
 213 -125 l 1
 117 -125 l 1
 171 14 l 1
 113 36 78 96 78 250 c 0
 78 500 168 500 308 500 c 2
 356 500 l 1
 404 625 l 1
 500 625 l 1
 446 486 l 1
 504 464 539 404 539 250 c 0
295 90 m 1
 308 90 l 2
 398 90 449 90 449 250 c 0
 449 332 437 372 411 392 c 1
 295 90 l 1
EndSplineSet
Validated: 1
EndChar

StartChar: thorn
Encoding: 254 254 189
Width: 617
VWidth: 0
Flags: W
HStem: 45 90<187.192 392.403> 365 90<187.192 392.403> 730 20G<78 168>
VStem: 78 90<-250 90 155.393 344.607 410 750> 449 90<189.602 310.398>
LayerCount: 2
Fore
SplineSet
78 750 m 1
 168 750 l 1
 168 410 l 1
 168 410 168 455 308 455 c 0
 538 455 539 250 539 250 c 1
 539 250 538 45 308 45 c 0
 168 45 168 90 168 90 c 1
 168 -250 l 1
 78 -250 l 1
 78 83 78 417 78 750 c 1
168 180 m 1
 168 180 168 135 308 135 c 0
 448 135 449 250 449 250 c 1
 449 250 448 365 308 365 c 0
 168 365 168 320 168 320 c 1
 168 180 l 1
EndSplineSet
Validated: 1
EndChar

StartChar: .notdef
Encoding: 65540 -1 191
Width: 617
Flags: W
HStem: 0 60<209 408> 606 60<209 408>
VStem: 119 90<60 606> 408 90<60 606>
LayerCount: 2
Fore
SplineSet
119 0 m 1
 119 666 l 1
 498 666 l 1
 498 0 l 1
 119 0 l 1
209 60 m 1
 408 60 l 1
 408 606 l 1
 209 606 l 1
 209 60 l 1
EndSplineSet
Validated: 1
EndChar

StartChar: dotlessi
Encoding: 305 305 192
Width: 617
Flags: W
HStem: 0 90<78 264 354 539> 410 90<123 264>
VStem: 264 90<90 410>
LayerCount: 2
Fore
SplineSet
123 500 m 4
 354 500 l 4
 354 90 l 4
 539 90 l 4
 539 0 l 4
 78 0 l 4
 78 90 l 4
 264 90 l 4
 264 410 l 4
 123 410 l 4
 123 500 l 4
EndSplineSet
Validated: 1
EndChar

StartChar: dieresis
Encoding: 168 168 193
Width: 617
Flags: W
HStem: 566 124<130.438 236.901 380.438 486.901>
VStem: 122 123<574.438 681.562> 372 123<574.438 681.562>
LayerCount: 2
Fore
SplineSet
434 690 m 0
 479 690 495 673 495 628 c 0
 495 583 479 566 434 566 c 0
 389 566 372 583 372 628 c 0
 372 673 389 690 434 690 c 0
184 690 m 0
 229 690 245 673 245 628 c 0
 245 583 229 566 184 566 c 0
 139 566 122 583 122 628 c 0
 122 673 139 690 184 690 c 0
EndSplineSet
Validated: 1
EndChar

StartChar: acute
Encoding: 180 180 194
Width: 617
Flags: W
HStem: 545 205
VStem: 386 96<699.605 735.37>
LayerCount: 2
Fore
SplineSet
282 545 m 6
 270 545 264 554 264 566 c 4
 266 611 328 665 386 719 c 5
 386 719 418 750 448 750 c 6
 449 750 l 6
 467 750 482 733 482 715 c 4
 481 685 448 654 448 654 c 5
 390 600 328 545 284 545 c 6
 282 545 l 6
EndSplineSet
Validated: 1
EndChar

StartChar: cedilla
Encoding: 184 184 195
Width: 617
Flags: W
HStem: -250 62<198 367.844> -102 63<354 371.999>
VStem: 264 90<-39 90> 376 73<-179.426 -108.935>
LayerCount: 2
Fore
SplineSet
354 90 m 1
 354 -39 l 1
 356 -39 l 2
 357 -39 l 0
 379 -39 449 -40 449 -144 c 0
 449 -250 376 -250 308 -250 c 2
 198 -250 l 1
 198 -188 l 1
 308 -188 l 2
 351 -188 376 -176 376 -144 c 0
 376 -112 356 -102 308 -102 c 2
 264 -102 l 1
 264 90 l 1
 354 90 l 1
EndSplineSet
Validated: 1
EndChar

StartChar: uniE0A0
Encoding: 57504 57504 196
Width: 617
Flags: W
VStem: 87 161<-408 -10.9193 293 961> 417 97<282.586 600>
LayerCount: 2
Fore
SplineSet
248 -408 m 1
 87 -408 l 1
 87 -123 l 2
 87 -52 102 5 133 50 c 0
 154 81 187 111 232 141 c 2
 320 200 l 2
 355 223 380 251 395 282 c 0
 410 313 417 354 417 405 c 2
 417 600 l 1
 296 600 l 1
 466 802 l 1
 636 600 l 1
 514 600 l 1
 514 372 l 2
 514 296 504 238 483 198 c 0
 462 158 432 124 390 96 c 2
 346 67 l 2
 310 43 285 18 271 -7 c 0
 255 -35 248 -74 248 -123 c 2
 248 -408 l 1
248 293 m 1
 87 188 l 1
 87 961 l 1
 248 961 l 1
 248 293 l 1
EndSplineSet
Validated: 1
EndChar

StartChar: uniE0A1
Encoding: 57505 57505 197
Width: 617
Flags: W
HStem: 300 78<203 408>
VStem: 113 90<378 832> 183 92<-281 -102.273> 183 81<-81.3636 65> 411 93<115.833 252> 423 81<-95 52.5833>
LayerCount: 2
Fore
SplineSet
408 378 m 1xc0
 408 300 l 1
 113 300 l 1
 113 832 l 1
 203 832 l 1
 203 378 l 1
 408 378 l 1xc0
411 252 m 1x88
 504 252 l 1x88
 504 -281 l 1
 406 -281 l 1
 264 65 l 1x94
 275 -165 l 1
 275 -281 l 1
 183 -281 l 1xa0
 183 252 l 1
 279 252 l 1
 423 -95 l 1x94
 411 158 l 1
 411 252 l 1x88
EndSplineSet
Validated: 1
EndChar

StartChar: uniE0A2
Encoding: 57506 57506 198
Width: 617
Flags: W
HStem: -192 140<276 341> 278 110<258.004 359.342> 679 77<253.827 362.76>
VStem: 72 204<-52 155.113> 72 164<151.675 255.996> 143 79<388 645.353> 341 204<-52 155.113> 381 164<151.675 255.341> 395 80<388 645.353>
LayerCount: 2
Fore
SplineSet
154 -192 m 2xe1
 99 -192 72 -165 72 -109 c 2
 72 299 l 2xe9
 72 359 96 388 143 388 c 1
 143 569 l 2
 143 623 159 668 192 704 c 0
 223 738 262 756 309 756 c 0
 356 756 395 738 426 704 c 0
 459 668 475 623 475 569 c 2
 475 388 l 1xe480
 522 388 545 359 545 299 c 2
 545 -109 l 2
 545 -165 518 -192 463 -192 c 2
 154 -192 l 2xe1
309 679 m 0
 283 679 262 669 246 649 c 0
 230 629 222 603 222 569 c 2
 222 388 l 1
 395 388 l 1
 395 569 l 2xe480
 395 603 387 629 371 649 c 0
 355 669 335 679 309 679 c 0
341 -52 m 1xf2
 341 139 l 1xf2
 367 153 381 174 381 204 c 0
 381 224 374 242 360 256 c 0
 346 270 329 278 309 278 c 0
 289 278 272 270 258 256 c 0
 244 242 236 224 236 204 c 0xe9
 236 174 250 153 276 139 c 1
 276 -52 l 1
 341 -52 l 1xf2
EndSplineSet
Validated: 1
EndChar

StartChar: uniE0B0
Encoding: 57520 57520 199
Width: 617
Flags: W
LayerCount: 2
Fore
SplineSet
0 961 m 1
 617 274 l 1
 0 -414 l 1
 0 961 l 1
EndSplineSet
Validated: 1
EndChar

StartChar: uniE0B1
Encoding: 57521 57521 200
Width: 617
Flags: W
LayerCount: 2
Fore
SplineSet
-33 880 m 1
 23 936 l 1
 617 274 l 1
 23 -388 l 1
 -33 -331 l 1
 509 274 l 1
 -33 880 l 1
EndSplineSet
Validated: 1
EndChar

StartChar: uniE0B2
Encoding: 57522 57522 201
Width: 617
Flags: W
LayerCount: 2
Fore
SplineSet
616 -414 m 5
 0 274 l 5
 616 961 l 5
 616 -414 l 5
EndSplineSet
Validated: 1
EndChar

StartChar: uniE0B3
Encoding: 57523 57523 202
Width: 617
Flags: W
LayerCount: 2
Fore
SplineSet
108 274 m 1
 650 -331 l 1
 594 -388 l 1
 0 274 l 1
 594 936 l 1
 650 880 l 1
 108 274 l 1
EndSplineSet
Validated: 1
EndChar

StartChar: block
Encoding: 9608 9608 203
Width: 617
VWidth: 0
Flags: W
VStem: 0 617<-375 875>
LayerCount: 2
Fore
SplineSet
0 875 m 25
 617 875 l 25
 617 -375 l 25
 0 -375 l 25
 0 875 l 25
EndSplineSet
Validated: 1
EndChar

StartChar: brokenbar
Encoding: 166 166 204
Width: 617
VWidth: 0
Flags: W
HStem: 730 20G<264 354>
VStem: 264 90<-90 240 420 750>
LayerCount: 2
Fore
SplineSet
264 750 m 1
 354 750 l 1
 354 420 l 1
 264 420 l 1
 264 750 l 1
354 240 m 1
 354 -90 l 1
 264 -90 l 1
 264 240 l 1
 354 240 l 1
EndSplineSet
Validated: 1
EndChar

StartChar: bullet
Encoding: 8226 8226 205
Width: 617
Flags: W
VStem: 126 365<239.602 419.904>
LayerCount: 2
Fore
SplineSet
308 512 m 1
 308 512 491 512 491 330 c 0
 491 147 308 147 308 147 c 1
 308 147 126 147 126 330 c 0
 126 512 308 512 308 512 c 1
EndSplineSet
Validated: 1
EndChar

StartChar: uni2219
Encoding: 8729 8729 206
Width: 617
Flags: W
VStem: 126 365<239.602 419.904>
LayerCount: 2
Fore
SplineSet
308 512 m 5
 308 512 491 512 491 330 c 4
 491 147 308 147 308 147 c 5
 308 147 126 147 126 330 c 4
 126 512 308 512 308 512 c 5
EndSplineSet
Validated: 1
EndChar

StartChar: endash
Encoding: 8211 8211 207
Width: 617
Flags: W
HStem: 285 90<78 539>
LayerCount: 2
Fore
SplineSet
78 375 m 0
 539 375 l 0
 539 285 l 0
 78 285 l 0
 78 375 l 0
EndSplineSet
Validated: 1
EndChar

StartChar: emdash
Encoding: 8212 8212 208
Width: 617
Flags: W
HStem: 285 90<0 617>
LayerCount: 2
Fore
SplineSet
0 375 m 4
 617 375 l 4
 617 285 l 4
 0 285 l 4
 0 375 l 4
EndSplineSet
Validated: 1
EndChar

StartChar: figuredash
Encoding: 8210 8210 209
Width: 617
Flags: W
HStem: 285 90<78 539>
LayerCount: 2
Fore
SplineSet
78 375 m 4
 539 375 l 4
 539 285 l 4
 78 285 l 4
 78 375 l 4
EndSplineSet
Validated: 1
EndChar

StartChar: afii00208
Encoding: 8213 8213 210
Width: 617
Flags: W
HStem: 285 90<0 617>
LayerCount: 2
Fore
SplineSet
0 375 m 4
 617 375 l 4
 617 285 l 4
 0 285 l 4
 0 375 l 4
EndSplineSet
Validated: 1
EndChar

StartChar: uni2011
Encoding: 8209 8209 211
Width: 617
Flags: W
HStem: 285 90<78 539>
LayerCount: 2
Fore
SplineSet
78 375 m 4
 539 375 l 4
 539 285 l 4
 78 285 l 4
 78 375 l 4
EndSplineSet
Validated: 1
EndChar

StartChar: uni2010
Encoding: 8208 8208 212
Width: 617
Flags: W
HStem: 285 90<78 539>
LayerCount: 2
Fore
SplineSet
78 375 m 4
 539 375 l 4
 539 285 l 4
 78 285 l 4
 78 375 l 4
EndSplineSet
Validated: 1
EndChar

StartChar: uni26A1
Encoding: 9889 9889 213
Width: 617
VWidth: 0
Flags: W
HStem: 730 20G<481.836 490.2>
LayerCount: 2
Fore
SplineSet
344 300 m 1
 537 300 l 1
 120 -250 l 1
 272 200 l 1
 80 200 l 1
 497 750 l 1
 344 300 l 1
EndSplineSet
Validated: 1
EndChar

StartChar: H18533
Encoding: 9679 9679 214
Width: 617
Flags: W
VStem: 59 500<266.98 483.02>
LayerCount: 2
Fore
SplineSet
308 625 m 4
 308 625 559 625 559 375 c 4
 559 125 308 125 308 125 c 4
 308 125 59 125 59 375 c 4
 59 625 308 625 308 625 c 4
EndSplineSet
Validated: 1
EndChar

StartChar: uni25FE
Encoding: 9726 9726 215
Width: 617
VWidth: 0
Flags: W
HStem: 225 300<159 459>
VStem: 159 300<225 525>
LayerCount: 2
Fore
SplineSet
159 525 m 29
 459 525 l 29
 459 225 l 29
 159 225 l 29
 159 525 l 29
EndSplineSet
Validated: 1
EndChar

StartChar: uni25FC
Encoding: 9724 9724 216
Width: 617
VWidth: 0
Flags: W
HStem: 125 500<59 559>
VStem: 59 500<125 625>
LayerCount: 2
Fore
SplineSet
59 625 m 25
 559 625 l 29
 559 125 l 25
 59 125 l 25
 59 625 l 25
EndSplineSet
Validated: 1
EndChar

StartChar: filledbox
Encoding: 9632 9632 217
Width: 617
VWidth: 0
Flags: W
HStem: 0 617<0 617>
VStem: 0 617<0 617>
LayerCount: 2
Fore
SplineSet
0 617 m 29
 617 617 l 29
 617 0 l 29
 0 0 l 29
 0 617 l 29
EndSplineSet
Validated: 1
EndChar

StartChar: H22073
Encoding: 9633 9633 218
Width: 617
VWidth: 0
Flags: W
HStem: 0 60<60 557> 557 60<60 557>
VStem: 0 60<60 557> 557 60<60 557>
LayerCount: 2
Fore
SplineSet
60 557 m 25
 60 60 l 25
 557 60 l 25
 557 557 l 25
 60 557 l 25
0 617 m 25
 617 617 l 25
 617 0 l 25
 0 0 l 25
 0 617 l 25
EndSplineSet
Validated: 1
EndChar

StartChar: uni25FD
Encoding: 9725 9725 219
Width: 617
VWidth: 0
Flags: W
HStem: 200 40<174 444> 510 40<174 444>
VStem: 134 40<240 510> 444 40<240 510>
LayerCount: 2
Fore
SplineSet
174 510 m 29
 174 240 l 29
 444 240 l 29
 444 510 l 29
 174 510 l 29
134 550 m 29
 484 550 l 29
 484 200 l 29
 134 200 l 29
 134 550 l 29
EndSplineSet
Validated: 1
EndChar

StartChar: uni25FB
Encoding: 9723 9723 220
Width: 617
VWidth: 0
Flags: W
HStem: 125 60<119 499> 565 60<119 499>
VStem: 59 60<185 565> 499 60<185 565>
LayerCount: 2
Fore
SplineSet
119 565 m 29
 119 185 l 29
 499 185 l 29
 499 565 l 29
 119 565 l 29
59 625 m 29
 559 625 l 29
 559 125 l 29
 59 125 l 29
 59 625 l 29
EndSplineSet
Validated: 1
EndChar

StartChar: upblock
Encoding: 9600 9600 221
Width: 617
VWidth: 0
Flags: W
HStem: 375 500<0 617>
VStem: 0 617<375 875>
LayerCount: 2
Fore
SplineSet
0 875 m 25
 617 875 l 25
 617 375 l 25
 0 375 l 25
 0 875 l 25
EndSplineSet
Validated: 1
EndChar

StartChar: uni2581
Encoding: 9601 9601 222
Width: 617
VWidth: 0
Flags: W
HStem: -375 156<0 617>
LayerCount: 2
Fore
SplineSet
0 -219 m 29
 617 -219 l 29
 617 -375 l 29
 0 -375 l 29
 0 -219 l 29
EndSplineSet
Validated: 1
EndChar

StartChar: uni2582
Encoding: 9602 9602 223
Width: 617
VWidth: 0
Flags: W
HStem: -375 313<0 617>
LayerCount: 2
Fore
SplineSet
0 -62 m 29
 617 -62 l 29
 617 -375 l 25
 0 -375 l 25
 0 -62 l 29
EndSplineSet
Validated: 1
EndChar

StartChar: uni2583
Encoding: 9603 9603 224
Width: 617
VWidth: 0
Flags: W
HStem: -375 469<0 617>
LayerCount: 2
Fore
SplineSet
0 94 m 29
 617 94 l 29
 617 -375 l 25
 0 -375 l 25
 0 94 l 29
EndSplineSet
Validated: 1
EndChar

StartChar: dnblock
Encoding: 9604 9604 225
Width: 617
VWidth: 0
Flags: W
HStem: -375 625<0 617>
VStem: 0 617<-375 250>
LayerCount: 2
Fore
SplineSet
0 250 m 29
 617 250 l 29
 617 -375 l 25
 0 -375 l 25
 0 250 l 29
EndSplineSet
Validated: 1
EndChar

StartChar: uni2585
Encoding: 9605 9605 226
Width: 617
VWidth: 0
Flags: W
VStem: 0 617<-375 406>
LayerCount: 2
Fore
SplineSet
0 406 m 29
 617 406 l 29
 617 -375 l 25
 0 -375 l 25
 0 406 l 29
EndSplineSet
Validated: 1
EndChar

StartChar: uni2586
Encoding: 9606 9606 227
Width: 617
VWidth: 0
Flags: W
VStem: 0 617<-375 563>
LayerCount: 2
Fore
SplineSet
0 563 m 29
 617 563 l 29
 617 -375 l 25
 0 -375 l 25
 0 563 l 29
EndSplineSet
Validated: 1
EndChar

StartChar: uni2587
Encoding: 9607 9607 228
Width: 617
VWidth: 0
Flags: W
VStem: 0 617<-375 718>
LayerCount: 2
Fore
SplineSet
0 718 m 25
 617 718 l 25
 617 -375 l 25
 0 -375 l 25
 0 718 l 25
EndSplineSet
Validated: 1
EndChar

StartChar: uni25A3
Encoding: 9635 9635 229
Width: 617
VWidth: 0
Flags: W
HStem: 0 60<60 557> 159 300<159 459> 557 60<60 557>
VStem: 0 60<60 557> 159 300<159 459> 557 60<60 557>
LayerCount: 2
Fore
SplineSet
60 557 m 25
 60 60 l 25
 557 60 l 25
 557 557 l 25
 60 557 l 25
0 617 m 25
 617 617 l 25
 617 0 l 25
 0 0 l 25
 0 617 l 25
159 459 m 25
 459 459 l 25
 459 159 l 25
 159 159 l 25
 159 459 l 25
EndSplineSet
Validated: 1
EndChar

StartChar: uni2589
Encoding: 9609 9609 230
Width: 617
VWidth: 0
Flags: W
VStem: 0 540<-375 875>
LayerCount: 2
Fore
SplineSet
0 875 m 25
 540 875 l 29
 540 -375 l 29
 0 -375 l 25
 0 875 l 25
EndSplineSet
Validated: 1
EndChar

StartChar: uni258A
Encoding: 9610 9610 231
Width: 617
VWidth: 0
Flags: W
VStem: 0 463<-375 875>
LayerCount: 2
Fore
SplineSet
0 875 m 25
 463 875 l 29
 463 -375 l 29
 0 -375 l 25
 0 875 l 25
EndSplineSet
Validated: 1
EndChar

StartChar: uni258B
Encoding: 9611 9611 232
Width: 617
VWidth: 0
Flags: W
VStem: 0 386<-375 875>
LayerCount: 2
Fore
SplineSet
0 875 m 25
 386 875 l 29
 386 -375 l 29
 0 -375 l 25
 0 875 l 25
EndSplineSet
Validated: 1
EndChar

StartChar: lfblock
Encoding: 9612 9612 233
Width: 617
VWidth: 0
Flags: W
VStem: 0 309<-375 875>
LayerCount: 2
Fore
SplineSet
0 875 m 25
 309 875 l 29
 309 -375 l 29
 0 -375 l 25
 0 875 l 25
EndSplineSet
Validated: 1
EndChar

StartChar: uni258D
Encoding: 9613 9613 234
Width: 617
VWidth: 0
Flags: W
VStem: 0 231<-375 875>
LayerCount: 2
Fore
SplineSet
0 875 m 25
 231 875 l 29
 231 -375 l 29
 0 -375 l 25
 0 875 l 25
EndSplineSet
Validated: 1
EndChar

StartChar: uni258E
Encoding: 9614 9614 235
Width: 617
VWidth: 0
Flags: W
VStem: 0 154<-375 875>
LayerCount: 2
Fore
SplineSet
0 875 m 25
 154 875 l 25
 154 -375 l 25
 0 -375 l 25
 0 875 l 25
EndSplineSet
Validated: 1
EndChar

StartChar: uni258F
Encoding: 9615 9615 236
Width: 617
VWidth: 0
Flags: W
VStem: 0 77<-375 875>
LayerCount: 2
Fore
SplineSet
0 875 m 25
 77 875 l 29
 77 -375 l 29
 0 -375 l 25
 0 875 l 25
EndSplineSet
Validated: 1
EndChar

StartChar: rtblock
Encoding: 9616 9616 237
Width: 617
VWidth: 0
Flags: W
VStem: 308 309<-375 875>
LayerCount: 2
Fore
SplineSet
308 875 m 29
 617 875 l 25
 617 -375 l 25
 308 -375 l 29
 308 875 l 29
EndSplineSet
Validated: 1
EndChar

StartChar: H18543
Encoding: 9642 9642 238
Width: 617
VWidth: 0
Flags: W
HStem: 200 350<134 484>
VStem: 134 350<200 550>
LayerCount: 2
Fore
SplineSet
134 550 m 25
 484 550 l 25
 484 200 l 25
 134 200 l 25
 134 550 l 25
EndSplineSet
Validated: 1
EndChar

StartChar: H18551
Encoding: 9643 9643 239
Width: 617
VWidth: 0
Flags: W
HStem: 225 40<199 419> 485 40<199 419>
VStem: 159 40<265 485> 419 40<265 485>
LayerCount: 2
Fore
SplineSet
199 485 m 29
 199 265 l 29
 419 265 l 29
 419 485 l 29
 199 485 l 29
159 525 m 29
 459 525 l 29
 459 225 l 29
 159 225 l 29
 159 525 l 29
EndSplineSet
Validated: 1
EndChar

StartChar: triagup
Encoding: 9650 9650 240
Width: 617
VWidth: 0
Flags: W
HStem: 0 21G<0 617>
LayerCount: 2
Fore
SplineSet
308 617 m 25
 617 0 l 25
 0 0 l 25
 308 617 l 25
EndSplineSet
Validated: 1
EndChar

StartChar: uni25B3
Encoding: 9651 9651 241
Width: 617
VWidth: 0
Flags: W
HStem: 0 60<97 520>
LayerCount: 2
Fore
SplineSet
308 481 m 25
 97 60 l 25
 520 60 l 25
 308 481 l 25
308 617 m 25
 617 0 l 25
 0 0 l 25
 308 617 l 25
EndSplineSet
Validated: 1
EndChar

StartChar: uni25B4
Encoding: 9652 9652 242
Width: 617
VWidth: 0
Flags: W
LayerCount: 2
Fore
SplineSet
308 550 m 29
 484 200 l 29
 134 200 l 29
 308 550 l 29
EndSplineSet
Validated: 1
EndChar

StartChar: uni25B5
Encoding: 9653 9653 243
Width: 617
VWidth: 0
Flags: W
HStem: 225 40<223 395>
VStem: 159 300
LayerCount: 2
Fore
SplineSet
308 436 m 25
 223 265 l 25
 395 265 l 25
 308 436 l 25
308 525 m 25
 459 225 l 25
 159 225 l 25
 308 525 l 25
EndSplineSet
Validated: 1
EndChar

StartChar: uni25B6
Encoding: 9654 9654 244
Width: 617
VWidth: 0
Flags: W
LayerCount: 2
Fore
SplineSet
617 375 m 25
 0 66 l 25
 0 683 l 25
 617 375 l 25
EndSplineSet
Validated: 1
EndChar

StartChar: uni25B7
Encoding: 9655 9655 245
Width: 617
VWidth: 0
Flags: W
VStem: 0 60<163 586>
LayerCount: 2
Fore
SplineSet
481 375 m 25
 60 586 l 25
 60 163 l 25
 481 375 l 25
617 375 m 25
 0 66 l 25
 0 683 l 25
 617 375 l 25
EndSplineSet
Validated: 1
EndChar

StartChar: uni25B8
Encoding: 9656 9656 246
Width: 617
VWidth: 0
Flags: W
LayerCount: 2
Fore
SplineSet
484 375 m 25
 134 199 l 25
 134 549 l 25
 484 375 l 25
EndSplineSet
Validated: 1
EndChar

StartChar: uni25B9
Encoding: 9657 9657 247
Width: 617
VWidth: 0
Flags: W
HStem: 224 300
VStem: 159 40<288 460>
LayerCount: 2
Fore
SplineSet
370 375 m 25
 199 460 l 25
 199 288 l 25
 370 375 l 25
459 375 m 25
 159 224 l 25
 159 524 l 25
 459 375 l 25
EndSplineSet
Validated: 1
EndChar

StartChar: uni25C0
Encoding: 9664 9664 248
Width: 617
VWidth: 0
Flags: W
LayerCount: 2
Fore
SplineSet
0 374 m 25
 617 683 l 25
 617 66 l 25
 0 374 l 25
EndSplineSet
Validated: 1
EndChar

StartChar: uni25C1
Encoding: 9665 9665 249
Width: 617
VWidth: 0
Flags: W
VStem: 557 60<163 586>
LayerCount: 2
Fore
SplineSet
136 374 m 25
 557 163 l 25
 557 586 l 25
 136 374 l 25
0 374 m 25
 617 683 l 25
 617 66 l 25
 0 374 l 25
EndSplineSet
Validated: 1
EndChar

StartChar: uni25C2
Encoding: 9666 9666 250
Width: 617
VWidth: 0
Flags: W
LayerCount: 2
Fore
SplineSet
134 373 m 29
 484 549 l 25
 484 199 l 25
 134 373 l 29
EndSplineSet
Validated: 1
EndChar

StartChar: uni25C3
Encoding: 9667 9667 251
Width: 617
VWidth: 0
Flags: W
HStem: 224 300
VStem: 419 40<288 460>
LayerCount: 2
Fore
SplineSet
248 373 m 25
 419 288 l 25
 419 460 l 25
 248 373 l 25
159 373 m 25
 459 524 l 25
 459 224 l 25
 159 373 l 25
EndSplineSet
Validated: 1
EndChar

StartChar: triagdn
Encoding: 9660 9660 252
Width: 617
VWidth: 0
Flags: W
HStem: 0 21G<298.984 318.984>
LayerCount: 2
Fore
SplineSet
309 0 m 25
 0 617 l 25
 617 617 l 25
 309 0 l 25
EndSplineSet
Validated: 1
EndChar

StartChar: uni25BD
Encoding: 9661 9661 253
Width: 617
VWidth: 0
Flags: W
HStem: 0 21G<298.984 318.984> 557 60<97 520>
LayerCount: 2
Fore
SplineSet
309 136 m 25
 520 557 l 25
 97 557 l 25
 309 136 l 25
309 0 m 25
 0 617 l 25
 617 617 l 25
 309 0 l 25
EndSplineSet
Validated: 1
EndChar

StartChar: uni25BE
Encoding: 9662 9662 254
Width: 617
VWidth: 0
Flags: W
LayerCount: 2
Fore
SplineSet
310 200 m 29
 134 550 l 29
 484 550 l 29
 310 200 l 29
EndSplineSet
Validated: 1
EndChar

StartChar: uni25BF
Encoding: 9663 9663 255
Width: 617
VWidth: 0
Flags: W
HStem: 485 40<223 395>
VStem: 159 300
LayerCount: 2
Fore
SplineSet
310 314 m 25
 395 485 l 25
 223 485 l 25
 310 314 l 25
310 225 m 25
 159 525 l 25
 459 525 l 25
 310 225 l 25
EndSplineSet
Validated: 1
EndChar

StartChar: triagrt
Encoding: 9658 9658 256
Width: 617
VWidth: 0
Flags: W
LayerCount: 2
Fore
SplineSet
617 375 m 25
 0 199 l 25
 0 549 l 25
 617 375 l 25
EndSplineSet
Validated: 1
EndChar

StartChar: uni25BB
Encoding: 9659 9659 257
Width: 617
VWidth: 0
Flags: W
VStem: 0 60<279 469>
LayerCount: 2
Fore
SplineSet
399 375 m 25
 60 469 l 25
 60 279 l 25
 399 375 l 25
617 375 m 25
 0 199 l 25
 0 549 l 25
 617 375 l 25
EndSplineSet
Validated: 1
EndChar

StartChar: triaglf
Encoding: 9668 9668 258
Width: 617
VWidth: 0
Flags: W
LayerCount: 2
Fore
SplineSet
0 373 m 25
 617 549 l 25
 617 199 l 25
 0 373 l 25
EndSplineSet
Validated: 1
EndChar

StartChar: uni25C5
Encoding: 9669 9669 259
Width: 617
VWidth: 0
Flags: W
VStem: 557 60<279 469>
LayerCount: 2
Fore
SplineSet
218 373 m 25
 557 279 l 25
 557 469 l 25
 218 373 l 25
0 373 m 25
 617 549 l 25
 617 199 l 25
 0 373 l 25
EndSplineSet
Validated: 1
EndChar

StartChar: ellipsis
Encoding: 8230 8230 260
Width: 617
Flags: W
HStem: 0 180<35.8095 142.574 254.809 361.574 473.809 580.574>
VStem: 0 179<36.4257 143.574> 219 179<36.4257 143.574> 438 179<36.4257 143.574>
CounterMasks: 1 70
LayerCount: 2
Fore
SplineSet
89 180 m 4
 134 180 179 135 179 90 c 4
 179 45 134 0 89 0 c 4
 44 0 0 45 0 90 c 4
 0 135 44 180 89 180 c 4
527 180 m 4
 572 180 617 135 617 90 c 4
 617 45 572 0 527 0 c 4
 482 0 438 45 438 90 c 4
 438 135 482 180 527 180 c 4
308 180 m 4
 353 180 398 135 398 90 c 4
 398 45 353 0 308 0 c 4
 263 0 219 45 219 90 c 4
 219 135 263 180 308 180 c 4
EndSplineSet
Validated: 1
EndChar

StartChar: circumflex
Encoding: 710 710 261
Width: 617
Flags: MW
HStem: 545 205
DStem2: 117 545 214 545 0.582737 0.812661<56.5255 210.447> 354 750 308 667 0.58011 -0.814538<40.9216 40.9216>
LayerCount: 2
Fore
SplineSet
354 750 m 1
 500 545 l 1
 404 545 l 1
 308 667 l 1
 214 545 l 1
 117 545 l 1
 264 750 l 1
 354 750 l 1
EndSplineSet
Validated: 1
EndChar

StartChar: ring
Encoding: 730 730 262
Width: 617
VWidth: 0
Flags: W
HStem: 545 63<253.581 363.125> 688 62<253.581 363.125>
VStem: 184 62<616.483 679.379> 371 63<617.654 678.052>
LayerCount: 2
Fore
SplineSet
308 545 m 4
 185 545 184 645 184 648 c 4
 184 651 185 750 308 750 c 4
 433 750 434 648 434 648 c 5
 434 648 433 545 308 545 c 4
246 648 m 5
 246 648 246 608 308 608 c 7
 370 608 371 648 371 648 c 5
 371 648 370 688 308 688 c 4
 246 688 246 648 246 648 c 5
EndSplineSet
Validated: 1
EndChar

StartChar: caron
Encoding: 711 711 263
Width: 617
Flags: MW
HStem: 545 205
DStem2: 214 750 117 750 0.582737 -0.812661<0 153.922> 308 628 354 545 0.58011 0.814538<0 155.064>
LayerCount: 2
Fore
SplineSet
354 545 m 1
 264 545 l 1
 117 750 l 1
 214 750 l 1
 308 628 l 1
 404 750 l 1
 500 750 l 1
 354 545 l 1
EndSplineSet
Validated: 1
EndChar
